<svg xmlns="http://www.w3.org/2000/svg" xmlns:xlink="http://www.w3.org/1999/xlink" width="382" zoomAndPan="magnify" viewBox="0 0 286.5 231" height="308" preserveAspectRatio="xMidYMid meet" version="1.0"><defs><clipPath id="efe2ad93d9"><path d="M 94.710938 60.152344 L 204.769531 60.152344 L 204.769531 170.210938 L 94.710938 170.210938 Z M 94.710938 60.152344 " clip-rule="nonzero"/></clipPath><clipPath id="1917cc1c15"><path d="M 55 0.203125 L 286 0.203125 L 286 230.050781 L 55 230.050781 Z M 55 0.203125 " clip-rule="nonzero"/></clipPath><clipPath id="2d7c0ee684"><path d="M 27 0.203125 L 258 0.203125 L 258 230.050781 L 27 230.050781 Z M 27 0.203125 " clip-rule="nonzero"/></clipPath><clipPath id="8838b2055f"><path d="M 0 0.203125 L 230 0.203125 L 230 230.050781 L 0 230.050781 Z M 0 0.203125 " clip-rule="nonzero"/></clipPath></defs><g clip-path="url(#efe2ad93d9)"><path fill="#ffffff" d="M 137.015625 61.859375 L 137.015625 63.5625 L 134.382812 63.5625 C 130.582031 63.5625 130.753906 63.542969 130.753906 64.039062 C 130.753906 64.449219 130.90625 64.46875 133.886719 64.46875 L 137.015625 64.46875 L 137.015625 69.824219 L 130.171875 69.800781 L 123.308594 69.78125 L 123.246094 70.46875 L 123.179688 71.160156 L 129.394531 71.140625 C 137.898438 71.117188 137.015625 71.054688 137.015625 71.808594 L 137.015625 72.457031 L 135.351562 72.476562 C 129.546875 72.519531 121.863281 72.457031 121.710938 72.371094 C 121.625 72.304688 121.5625 71.226562 121.582031 69.972656 L 121.625 67.707031 L 120.394531 67.707031 L 120.394531 72.457031 L 119.273438 72.476562 C 118.648438 72.476562 116.878906 72.476562 115.367188 72.476562 L 112.605469 72.476562 L 112.667969 73.039062 L 112.734375 73.601562 L 116.511719 73.621094 L 120.289062 73.644531 L 120.351562 79.730469 L 120.394531 85.835938 L 108.160156 85.835938 L 108.179688 82.210938 C 108.203125 80.226562 108.179688 78.476562 108.136719 78.328125 C 108.09375 78.195312 107.8125 78.066406 107.554688 78.066406 L 107.058594 78.066406 L 107.035156 81.671875 C 107.035156 83.679688 107.035156 85.425781 107.035156 85.558594 C 107.015625 85.773438 106.390625 85.835938 104.640625 85.835938 L 102.265625 85.835938 L 102.265625 86.375 C 102.265625 86.980469 102.136719 86.960938 105.136719 86.960938 L 107.015625 86.960938 L 107.035156 87.628906 C 107.058594 88.511719 107.058594 101.074219 107.035156 101.851562 C 107.015625 102.371094 106.929688 102.457031 106.367188 102.457031 L 105.71875 102.457031 L 105.71875 88.644531 L 104.296875 88.644531 L 104.316406 95.269531 C 104.339844 98.9375 104.296875 102.046875 104.253906 102.175781 C 104.1875 102.390625 103.453125 102.457031 101.53125 102.457031 L 98.921875 102.457031 L 98.964844 99.328125 C 98.984375 96.371094 98.964844 96.195312 98.574219 96.195312 C 98.101562 96.195312 98.121094 95.960938 98.121094 99.585938 L 98.101562 102.457031 L 96.417969 102.457031 C 94.863281 102.457031 94.710938 102.5 94.710938 102.886719 C 94.710938 103.253906 94.863281 103.320312 95.75 103.339844 C 96.308594 103.363281 97.066406 103.382812 97.410156 103.40625 L 98.058594 103.425781 L 98.058594 108.390625 C 98.058594 111.109375 98.015625 113.484375 97.972656 113.613281 C 97.929688 113.765625 97.734375 113.894531 97.519531 113.894531 C 97.195312 113.894531 97.128906 114.089844 97.128906 115.191406 C 97.128906 116.3125 97.171875 116.484375 97.539062 116.484375 C 97.753906 116.484375 97.949219 116.550781 97.972656 116.636719 C 98.035156 117.347656 98.058594 126.390625 97.992188 126.671875 C 97.929688 126.953125 97.691406 127.039062 97 127.015625 C 94.90625 126.996094 94.710938 127.039062 94.710938 127.492188 C 94.710938 127.878906 94.863281 127.921875 96.332031 127.921875 C 97.214844 127.921875 97.949219 127.988281 97.972656 128.074219 C 97.992188 128.183594 98.015625 129.5625 98.035156 131.160156 C 98.058594 134.007812 98.078125 134.074219 98.554688 134.140625 C 99.027344 134.203125 99.027344 134.203125 99.027344 131.074219 L 99.027344 127.921875 L 104.339844 127.921875 L 104.339844 141.628906 L 105.007812 141.691406 L 105.675781 141.757812 L 105.675781 135.433594 C 105.675781 131.960938 105.699219 128.851562 105.699219 128.507812 C 105.71875 128.007812 105.804688 127.921875 106.367188 127.921875 L 107.015625 127.921875 L 107.015625 143.417969 L 105.027344 143.417969 C 102.117188 143.417969 102.265625 143.398438 102.265625 144.003906 L 102.265625 144.542969 L 107.015625 144.542969 L 107.015625 152.332031 L 107.617188 152.269531 L 108.203125 152.203125 L 108.203125 144.648438 L 114.308594 144.585938 C 120.007812 144.542969 120.394531 144.5625 120.417969 144.910156 C 120.4375 145.40625 120.4375 154.964844 120.417969 156.003906 L 120.394531 156.78125 L 116.792969 156.800781 C 114.785156 156.800781 113.035156 156.824219 112.90625 156.824219 C 112.753906 156.84375 112.625 157.082031 112.625 157.363281 L 112.625 157.878906 L 116.445312 157.921875 C 118.539062 157.921875 120.308594 157.964844 120.351562 158.03125 C 120.394531 158.074219 120.460938 159.109375 120.480469 160.339844 C 120.503906 162.542969 120.503906 162.5625 121.042969 162.5625 C 121.5625 162.5625 121.5625 162.542969 121.582031 160.363281 C 121.582031 159.152344 121.648438 158.117188 121.710938 158.03125 C 121.84375 157.921875 127.410156 157.878906 135.71875 157.921875 C 137.015625 157.921875 137.015625 157.921875 137.015625 158.570312 C 137.015625 159.324219 137.898438 159.261719 128.878906 159.238281 L 123.203125 159.21875 L 123.203125 159.867188 C 123.203125 160.234375 123.308594 160.511719 123.480469 160.535156 C 123.613281 160.535156 126.71875 160.554688 130.386719 160.554688 L 137.015625 160.554688 L 137.015625 165.910156 L 133.886719 165.910156 C 130.777344 165.910156 130.753906 165.910156 130.753906 166.382812 C 130.753906 166.878906 130.777344 166.878906 133.886719 166.859375 L 137.015625 166.835938 L 137.015625 168.519531 C 137.015625 170.050781 137.058594 170.226562 137.425781 170.226562 C 137.941406 170.226562 138.007812 169.988281 137.984375 168.324219 C 137.941406 167.117188 137.984375 166.964844 138.394531 166.878906 C 138.65625 166.835938 141.027344 166.816406 143.703125 166.835938 L 148.5625 166.878906 L 148.496094 167.375 C 148.433594 167.808594 148.496094 167.871094 149.035156 167.808594 C 149.488281 167.765625 149.617188 167.636719 149.574219 167.332031 C 149.53125 167.097656 149.597656 167.007812 149.75 167.097656 C 149.878906 167.183594 149.941406 167.375 149.878906 167.550781 C 149.792969 167.765625 149.941406 167.851562 150.394531 167.851562 C 150.761719 167.851562 151.023438 167.785156 151.023438 167.679688 C 150.890625 166.878906 150.871094 166.878906 156.289062 166.878906 L 161.511719 166.878906 L 161.511719 168.5 C 161.511719 170.007812 161.554688 170.117188 162.007812 170.183594 C 162.460938 170.246094 162.480469 170.183594 162.480469 168.519531 L 162.480469 166.816406 L 165.351562 166.816406 C 168.957031 166.816406 168.742188 166.859375 168.742188 166.339844 C 168.742188 165.929688 168.589844 165.910156 165.613281 165.910156 L 162.460938 165.910156 L 162.523438 163.253906 L 162.589844 160.621094 L 169.066406 160.578125 C 172.625 160.554688 175.710938 160.535156 175.929688 160.535156 C 176.1875 160.511719 176.292969 160.339844 176.292969 159.886719 L 176.292969 159.261719 L 170.316406 159.238281 C 167.015625 159.238281 163.90625 159.238281 163.410156 159.21875 C 162.523438 159.21875 162.480469 159.195312 162.480469 158.570312 C 162.480469 157.964844 162.546875 157.921875 163.300781 157.921875 C 164.207031 157.902344 175.476562 157.902344 176.964844 157.921875 L 177.933594 157.921875 L 177.933594 160.234375 L 177.914062 162.5625 L 178.476562 162.628906 L 179.035156 162.691406 L 179.035156 160.40625 C 179.035156 159.152344 179.078125 158.074219 179.144531 158.03125 C 179.1875 157.964844 180.957031 157.921875 183.050781 157.902344 L 186.871094 157.878906 L 186.871094 156.734375 L 179.058594 156.734375 L 179.015625 150.628906 L 178.992188 144.542969 L 191.292969 144.542969 L 191.273438 148.425781 L 191.273438 152.3125 L 192.480469 152.3125 L 192.480469 144.542969 L 197.230469 144.542969 L 197.230469 144.003906 C 197.230469 143.398438 197.339844 143.417969 194.488281 143.417969 L 192.480469 143.441406 L 192.480469 127.921875 L 193.128906 127.921875 C 193.605469 127.921875 193.777344 128.03125 193.796875 128.289062 C 193.796875 128.507812 193.820312 131.613281 193.820312 135.21875 L 193.839844 141.757812 L 194.488281 141.691406 L 195.15625 141.628906 L 195.136719 134.765625 L 195.136719 127.921875 L 200.46875 127.921875 L 200.46875 131.054688 C 200.46875 134.160156 200.46875 134.183594 200.964844 134.183594 C 201.4375 134.183594 201.4375 134.140625 201.4375 131.3125 C 201.417969 129.757812 201.460938 128.332031 201.503906 128.183594 C 201.566406 128.007812 202.109375 127.921875 203.207031 127.921875 C 204.742188 127.921875 204.804688 127.902344 204.742188 127.449219 C 204.675781 127.015625 204.546875 126.996094 203.164062 126.996094 C 202.34375 126.996094 201.609375 126.910156 201.546875 126.824219 C 201.460938 126.691406 201.4375 119.871094 201.523438 116.960938 C 201.546875 116.636719 201.675781 116.484375 201.976562 116.484375 C 202.300781 116.484375 202.410156 116.332031 202.410156 115.945312 C 202.410156 115.535156 202.300781 115.40625 201.957031 115.40625 C 201.699219 115.40625 201.589844 115.320312 201.65625 115.167969 C 201.742188 115.039062 201.933594 114.996094 202.109375 115.058594 C 202.324219 115.144531 202.410156 114.996094 202.410156 114.542969 C 202.410156 114.046875 202.300781 113.894531 202 113.894531 C 201.785156 113.894531 201.566406 113.722656 201.523438 113.507812 C 201.480469 113.3125 201.4375 110.960938 201.4375 108.28125 L 201.4375 103.425781 L 202.734375 103.382812 C 203.445312 103.382812 204.199219 103.339844 204.417969 103.339844 C 204.632812 103.320312 204.785156 103.148438 204.785156 102.886719 C 204.785156 102.5 204.632812 102.457031 203.101562 102.457031 L 201.394531 102.457031 L 201.417969 99.371094 C 201.4375 96.347656 201.417969 96.304688 200.941406 96.238281 C 200.445312 96.152344 200.445312 96.175781 200.46875 98.9375 C 200.488281 100.449219 200.488281 101.875 200.488281 102.066406 C 200.46875 102.414062 200.1875 102.457031 197.878906 102.457031 C 195.957031 102.457031 195.289062 102.390625 195.265625 102.175781 C 195.265625 102.046875 195.246094 98.9375 195.246094 95.269531 L 195.222656 88.644531 L 193.777344 88.644531 L 193.777344 102.457031 L 193.128906 102.457031 C 192.566406 102.457031 192.480469 102.371094 192.460938 101.851562 C 192.460938 101.140625 192.460938 87.542969 192.460938 87.21875 C 192.480469 87.046875 193.152344 86.960938 194.488281 86.960938 C 197.382812 86.960938 197.230469 86.980469 197.230469 86.375 L 197.230469 85.835938 L 192.480469 85.835938 L 192.460938 84.910156 C 192.460938 84.414062 192.4375 82.664062 192.4375 81.023438 L 192.4375 78.066406 L 191.921875 78.066406 C 191.640625 78.066406 191.402344 78.195312 191.382812 78.328125 C 191.382812 78.476562 191.359375 80.226562 191.359375 82.210938 L 191.339844 85.835938 L 179.101562 85.835938 L 179.144531 79.730469 L 179.207031 73.644531 L 182.769531 73.601562 C 184.734375 73.601562 186.460938 73.558594 186.609375 73.558594 C 186.742188 73.535156 186.871094 73.296875 186.871094 72.996094 L 186.871094 72.457031 L 183.589844 72.457031 C 181.777344 72.476562 180.027344 72.476562 179.703125 72.476562 L 179.101562 72.457031 L 179.101562 67.707031 L 177.847656 67.707031 L 177.890625 69.996094 C 177.914062 71.246094 177.847656 72.328125 177.761719 72.371094 C 177.632812 72.457031 165.546875 72.519531 162.976562 72.476562 C 162.566406 72.457031 162.480469 72.328125 162.480469 71.808594 C 162.480469 71.246094 162.566406 71.160156 163.085938 71.140625 C 163.410156 71.140625 166.519531 71.140625 169.992188 71.140625 L 176.316406 71.140625 L 176.25 70.46875 L 176.1875 69.800781 L 169.34375 69.800781 L 162.480469 69.824219 L 162.480469 64.46875 L 165.613281 64.46875 C 168.589844 64.46875 168.742188 64.449219 168.742188 64.039062 C 168.742188 63.542969 168.890625 63.5625 165.027344 63.5625 L 162.480469 63.542969 L 162.480469 61.859375 C 162.480469 60.21875 162.460938 60.152344 161.964844 60.152344 C 161.488281 60.152344 161.46875 60.21875 161.511719 61.601562 C 161.53125 62.421875 161.511719 63.175781 161.46875 63.304688 C 161.402344 63.476562 159.890625 63.542969 156.265625 63.519531 C 151.171875 63.5 151.152344 63.5 151.085938 63.023438 C 151.023438 62.59375 150.890625 62.550781 149.75 62.550781 C 148.625 62.570312 148.476562 62.613281 148.410156 63.023438 C 148.34375 63.476562 148.28125 63.476562 143.230469 63.519531 C 137.425781 63.585938 137.964844 63.78125 137.984375 61.492188 C 138.007812 60.238281 137.984375 60.152344 137.511719 60.152344 C 137.035156 60.152344 137.015625 60.21875 137.015625 61.859375 Z M 148.453125 68.464844 L 148.453125 72.457031 L 145.605469 72.457031 C 139.085938 72.476562 138.308594 72.476562 138.136719 72.371094 C 138.027344 72.304688 137.964844 72.003906 137.964844 71.679688 L 138.007812 71.117188 L 145.648438 71.117188 L 145.648438 70.492188 C 145.648438 70.039062 145.539062 69.867188 145.28125 69.84375 C 145.066406 69.84375 143.359375 69.824219 141.503906 69.824219 C 139.625 69.824219 138.09375 69.757812 138.070312 69.671875 C 138.070312 69.605469 138.027344 68.398438 138.007812 66.996094 L 137.964844 64.46875 L 148.453125 64.46875 Z M 161.488281 66.996094 C 161.46875 68.398438 161.445312 69.605469 161.425781 69.695312 C 161.425781 69.757812 159.976562 69.824219 158.230469 69.824219 C 153.460938 69.824219 153.847656 69.78125 153.847656 70.492188 L 153.847656 71.097656 L 157.539062 71.117188 C 159.566406 71.117188 161.273438 71.183594 161.359375 71.246094 C 161.53125 71.441406 161.574219 72.238281 161.402344 72.347656 C 161.25 72.433594 157.863281 72.5 153.804688 72.476562 L 151.042969 72.457031 L 151.042969 64.46875 L 161.511719 64.46875 Z M 149.855469 67.816406 C 149.878906 68.355469 149.835938 68.722656 149.769531 68.65625 C 149.703125 68.59375 149.640625 68.117188 149.640625 67.601562 C 149.617188 67.058594 149.660156 66.695312 149.726562 66.757812 C 149.792969 66.824219 149.855469 67.296875 149.855469 67.816406 Z M 149.878906 70.859375 C 149.878906 71.140625 149.835938 71.332031 149.769531 71.269531 C 149.703125 71.203125 149.640625 70.902344 149.617188 70.601562 C 149.617188 70.320312 149.660156 70.125 149.726562 70.191406 C 149.792969 70.253906 149.855469 70.558594 149.878906 70.859375 Z M 149.855469 71.785156 C 149.921875 71.894531 149.898438 72.046875 149.792969 72.109375 C 149.683594 72.175781 149.597656 72.089844 149.597656 71.917969 C 149.597656 71.550781 149.660156 71.507812 149.855469 71.785156 Z M 137.015625 81.195312 L 137.015625 88.792969 L 124.324219 88.792969 L 124.238281 88.234375 C 124.066406 86.980469 124.109375 86.960938 126.613281 86.960938 C 129.847656 86.960938 129.675781 87.003906 129.675781 86.375 L 129.675781 85.835938 L 126.976562 85.835938 C 124.5625 85.835938 124.28125 85.792969 124.257812 85.449219 C 124.238281 85.253906 124.238281 83.550781 124.238281 81.671875 C 124.238281 78.328125 124.238281 78.261719 123.785156 78.328125 C 123.351562 78.390625 123.332031 78.5 123.332031 82.125 L 123.332031 85.859375 L 122.46875 85.792969 L 121.605469 85.730469 L 121.582031 80.011719 C 121.582031 76.859375 121.605469 74.140625 121.648438 73.945312 C 121.710938 73.644531 122.574219 73.601562 129.375 73.601562 L 137.015625 73.601562 Z M 148.410156 81.21875 L 148.453125 88.816406 L 143.273438 88.792969 C 139.710938 88.792969 138.09375 88.707031 138.070312 88.554688 C 138.007812 87.886719 137.964844 74.03125 138.050781 73.816406 C 138.09375 73.644531 139.539062 73.578125 143.230469 73.621094 L 148.34375 73.644531 Z M 161.425781 73.816406 C 161.488281 74.527344 161.511719 88.363281 161.445312 88.554688 C 161.402344 88.730469 159.890625 88.816406 156.203125 88.792969 L 151.042969 88.792969 L 151.042969 81.304688 C 151.042969 77.183594 151.085938 73.773438 151.128906 73.730469 C 151.171875 73.6875 153.503906 73.621094 156.308594 73.601562 C 160.042969 73.578125 161.402344 73.644531 161.425781 73.816406 Z M 177.871094 73.835938 C 177.933594 74.03125 177.890625 85.234375 177.828125 85.664062 C 177.828125 85.773438 177.4375 85.835938 176.984375 85.835938 L 176.144531 85.835938 L 176.1875 82.320312 C 176.1875 80.398438 176.164062 78.695312 176.121094 78.542969 C 176.078125 78.414062 175.863281 78.285156 175.648438 78.285156 C 175.28125 78.285156 175.257812 78.542969 175.28125 82.058594 L 175.324219 85.835938 L 169.796875 85.835938 L 169.863281 86.398438 L 169.929688 86.980469 L 172.582031 86.960938 L 175.214844 86.960938 L 175.214844 88.816406 L 168.847656 88.792969 L 162.480469 88.792969 L 162.480469 73.601562 L 170.121094 73.601562 C 175.519531 73.601562 177.804688 73.664062 177.871094 73.835938 Z M 149.878906 76.902344 C 149.878906 77.183594 149.835938 77.375 149.769531 77.3125 C 149.703125 77.246094 149.640625 76.945312 149.617188 76.644531 C 149.617188 76.363281 149.660156 76.167969 149.726562 76.234375 C 149.792969 76.296875 149.855469 76.601562 149.878906 76.902344 Z M 149.855469 79.40625 C 149.703125 80.097656 149.574219 80.097656 149.617188 79.382812 C 149.617188 79.039062 149.703125 78.800781 149.792969 78.84375 C 149.878906 78.886719 149.898438 79.148438 149.855469 79.40625 Z M 149.878906 85.382812 C 149.878906 85.730469 149.792969 85.964844 149.726562 85.921875 C 149.640625 85.878906 149.597656 85.664062 149.640625 85.449219 C 149.683594 85.253906 149.726562 85.015625 149.726562 84.910156 C 149.75 84.824219 149.792969 84.757812 149.835938 84.757812 C 149.878906 84.757812 149.898438 85.039062 149.878906 85.382812 Z M 120.394531 87.886719 L 120.394531 88.792969 L 116.683594 88.792969 C 113.015625 88.792969 112.949219 88.792969 112.886719 89.246094 C 112.820312 89.722656 112.84375 89.722656 116.597656 89.722656 L 120.394531 89.722656 L 120.394531 95.117188 L 121.605469 95.117188 L 121.582031 92.417969 L 121.582031 89.722656 L 123.332031 89.722656 L 123.351562 96.089844 L 123.351562 102.457031 L 108.160156 102.457031 L 108.203125 94.730469 C 108.222656 90.5 108.265625 87.023438 108.265625 87.003906 C 108.289062 87.003906 111.027344 86.980469 114.351562 86.980469 L 120.394531 86.960938 Z M 123.308594 87.886719 C 123.308594 88.730469 123.289062 88.75 122.511719 88.773438 C 121.648438 88.816406 121.433594 88.511719 121.625 87.457031 C 121.734375 86.960938 121.820312 86.894531 122.53125 86.960938 C 123.289062 87.046875 123.308594 87.066406 123.308594 87.886719 Z M 177.828125 87.21875 C 177.976562 88.644531 177.933594 88.75 177.050781 88.75 C 176.25 88.75 176.207031 88.730469 176.164062 87.996094 C 176.121094 87.585938 176.207031 87.175781 176.359375 87.089844 C 176.726562 86.875 177.804688 86.960938 177.828125 87.21875 Z M 191.339844 94.707031 L 191.339844 102.457031 L 176.164062 102.457031 L 176.164062 89.722656 L 177.914062 89.722656 L 177.914062 92.417969 L 177.890625 95.117188 L 179.101562 95.117188 L 179.101562 89.722656 L 182.878906 89.722656 C 186.503906 89.722656 186.65625 89.699219 186.65625 89.289062 C 186.65625 88.792969 186.957031 88.835938 182.402344 88.816406 L 179.101562 88.816406 L 179.101562 86.980469 L 185.207031 86.980469 L 191.316406 86.960938 Z M 149.878906 87.886719 C 149.898438 88.058594 149.855469 88.253906 149.769531 88.296875 C 149.683594 88.363281 149.617188 88.167969 149.617188 87.886719 C 149.617188 87.347656 149.792969 87.347656 149.878906 87.886719 Z M 137.015625 95.65625 L 137.015625 101.59375 L 138.007812 101.59375 L 137.984375 95.699219 L 137.984375 89.828125 L 143.230469 89.765625 L 148.453125 89.722656 L 148.453125 105.261719 L 147.546875 105.28125 C 144.828125 105.328125 141.027344 105.261719 140.921875 105.152344 C 140.855469 105.089844 140.8125 103.277344 140.8125 101.160156 L 140.8125 97.277344 L 139.820312 97.277344 L 139.820312 105.261719 L 135.804688 105.261719 C 131.835938 105.261719 131.8125 105.261719 131.878906 105.714844 C 131.941406 106.191406 132.007812 106.191406 135.890625 106.191406 L 139.820312 106.191406 L 139.820312 113.894531 L 138.804688 113.894531 C 131.792969 113.960938 124.433594 113.917969 124.34375 113.808594 C 124.238281 113.722656 124.195312 108.476562 124.257812 104.355469 L 124.28125 103.339844 L 129.742188 103.339844 C 132.71875 103.339844 135.394531 103.339844 135.675781 103.339844 C 136 103.320312 136.152344 103.191406 136.152344 102.886719 C 136.152344 102.476562 135.976562 102.457031 130.195312 102.414062 L 124.214844 102.347656 L 124.238281 96.628906 C 124.238281 93.476562 124.257812 90.648438 124.257812 90.304688 L 124.28125 89.722656 L 137.015625 89.722656 Z M 161.511719 95.699219 L 161.488281 101.59375 L 162.480469 101.59375 L 162.480469 89.722656 L 175.214844 89.722656 L 175.238281 90.304688 C 175.257812 90.910156 175.238281 101.074219 175.214844 101.960938 L 175.214844 102.457031 L 169.28125 102.457031 C 163.496094 102.457031 163.34375 102.457031 163.34375 102.886719 C 163.34375 103.148438 163.496094 103.320312 163.734375 103.339844 C 163.929688 103.339844 166.605469 103.339844 169.667969 103.363281 L 175.214844 103.363281 L 175.238281 104.03125 C 175.28125 107.226562 175.238281 113.722656 175.152344 113.808594 C 175.085938 113.894531 167.121094 113.9375 161.035156 113.894531 L 159.675781 113.894531 L 159.675781 106.191406 L 163.625 106.191406 C 167.488281 106.210938 167.554688 106.210938 167.617188 105.738281 C 167.683594 105.28125 167.660156 105.28125 164.273438 105.28125 C 162.394531 105.28125 160.605469 105.28125 160.28125 105.28125 L 159.675781 105.261719 L 159.675781 97.277344 L 158.683594 97.277344 L 158.703125 101.183594 C 158.703125 103.320312 158.640625 105.132812 158.53125 105.195312 C 158.402344 105.28125 155.25 105.328125 152.078125 105.28125 L 151.042969 105.261719 L 151.042969 89.722656 L 156.265625 89.765625 L 161.511719 89.828125 Z M 149.855469 91.492188 C 149.703125 92.183594 149.574219 92.183594 149.617188 91.46875 C 149.617188 91.125 149.703125 90.886719 149.792969 90.929688 C 149.878906 90.972656 149.898438 91.234375 149.855469 91.492188 Z M 149.878906 94.167969 C 149.878906 94.449219 149.835938 94.644531 149.769531 94.578125 C 149.703125 94.511719 149.640625 94.210938 149.617188 93.910156 C 149.617188 93.628906 149.660156 93.433594 149.726562 93.5 C 149.792969 93.5625 149.855469 93.867188 149.878906 94.167969 Z M 149.855469 96.671875 C 149.703125 97.363281 149.574219 97.363281 149.617188 96.648438 C 149.617188 96.304688 149.703125 96.066406 149.792969 96.109375 C 149.878906 96.152344 149.898438 96.414062 149.855469 96.671875 Z M 149.878906 101.074219 C 149.878906 101.355469 149.835938 101.550781 149.769531 101.484375 C 149.703125 101.417969 149.640625 101.117188 149.617188 100.816406 C 149.617188 100.535156 149.660156 100.339844 149.726562 100.40625 C 149.792969 100.46875 149.855469 100.773438 149.878906 101.074219 Z M 149.855469 103.578125 C 149.703125 104.269531 149.574219 104.269531 149.617188 103.554688 C 149.617188 103.210938 149.703125 102.972656 149.792969 103.015625 C 149.878906 103.058594 149.898438 103.320312 149.855469 103.578125 Z M 104.296875 107.226562 L 104.273438 111.089844 L 105.71875 111.089844 L 105.71875 103.320312 L 106.367188 103.320312 C 106.949219 103.320312 107.015625 103.382812 107.035156 104.011719 C 107.078125 105.824219 106.992188 113.765625 106.929688 113.828125 C 106.820312 113.9375 99.246094 113.960938 99.136719 113.851562 C 99.050781 113.785156 98.941406 105.175781 99.007812 103.835938 C 99.027344 103.382812 99.117188 103.363281 101.683594 103.363281 L 104.316406 103.363281 Z M 123.332031 108.648438 L 123.351562 113.894531 L 121.605469 113.917969 C 114.570312 113.960938 108.460938 113.917969 108.375 113.808594 C 108.246094 113.679688 108.117188 103.964844 108.246094 103.621094 C 108.308594 103.425781 110.253906 103.382812 115.820312 103.40625 L 123.308594 103.425781 Z M 191.292969 108.519531 C 191.273438 111.371094 191.1875 113.742188 191.144531 113.808594 C 191.058594 113.894531 180.027344 113.960938 176.703125 113.894531 L 176.164062 113.894531 L 176.1875 108.648438 C 176.207031 105.78125 176.25 103.40625 176.25 103.40625 C 176.273438 103.382812 179.683594 103.363281 183.828125 103.363281 L 191.359375 103.363281 Z M 193.734375 107.246094 L 193.777344 111.089844 L 195.222656 111.089844 L 195.246094 107.785156 C 195.246094 105.996094 195.265625 104.246094 195.265625 103.945312 L 195.289062 103.363281 L 197.878906 103.363281 L 200.46875 103.339844 L 200.488281 105.972656 C 200.488281 109.964844 200.445312 113.765625 200.382812 113.828125 C 200.292969 113.9375 192.675781 113.9375 192.566406 113.851562 C 192.523438 113.785156 192.480469 111.714844 192.460938 109.234375 C 192.4375 102.691406 192.375 103.277344 193.085938 103.363281 L 193.667969 103.425781 Z M 158.617188 106.320312 C 158.703125 106.921875 158.703125 123.867188 158.617188 123.996094 C 158.554688 124.101562 154.496094 124.167969 149.617188 124.167969 L 140.769531 124.167969 L 140.8125 115.320312 C 140.835938 110.441406 140.878906 106.40625 140.878906 106.339844 C 140.898438 106.167969 158.597656 106.167969 158.617188 106.320312 Z M 97.949219 115.191406 C 97.949219 115.296875 97.863281 115.40625 97.734375 115.40625 C 97.625 115.40625 97.519531 115.296875 97.519531 115.191406 C 97.519531 115.058594 97.625 114.972656 97.734375 114.972656 C 97.863281 114.972656 97.949219 115.058594 97.949219 115.191406 Z M 99.675781 115.191406 C 99.675781 115.296875 99.527344 115.40625 99.332031 115.40625 C 99.160156 115.40625 99.070312 115.296875 99.136719 115.191406 C 99.203125 115.058594 99.351562 114.972656 99.480469 114.972656 C 99.589844 114.972656 99.675781 115.058594 99.675781 115.191406 Z M 100.753906 115.234375 C 100.753906 115.320312 100.5625 115.40625 100.324219 115.40625 C 100.085938 115.40625 99.890625 115.320312 99.890625 115.210938 C 99.890625 115.082031 100.085938 115.015625 100.324219 115.039062 C 100.5625 115.058594 100.753906 115.144531 100.753906 115.234375 Z M 101.402344 115.191406 C 101.402344 115.296875 101.316406 115.40625 101.1875 115.40625 C 101.078125 115.40625 100.972656 115.296875 100.972656 115.191406 C 100.972656 115.058594 101.078125 114.972656 101.1875 114.972656 C 101.316406 114.972656 101.402344 115.058594 101.402344 115.191406 Z M 102.914062 115.167969 C 102.914062 115.253906 102.632812 115.339844 102.265625 115.363281 C 101.921875 115.363281 101.617188 115.296875 101.617188 115.210938 C 101.617188 115.125 101.921875 115.039062 102.265625 115.015625 C 102.632812 115.015625 102.914062 115.082031 102.914062 115.167969 Z M 103.5625 115.191406 C 103.5625 115.296875 103.476562 115.40625 103.34375 115.40625 C 103.238281 115.40625 103.128906 115.296875 103.128906 115.191406 C 103.128906 115.058594 103.238281 114.972656 103.34375 114.972656 C 103.476562 114.972656 103.5625 115.058594 103.5625 115.191406 Z M 107.015625 115.191406 C 107.015625 115.277344 106.28125 115.363281 105.394531 115.339844 C 104.511719 115.339844 103.777344 115.277344 103.777344 115.191406 C 103.777344 115.101562 104.511719 115.039062 105.394531 115.039062 C 106.28125 115.039062 107.015625 115.101562 107.015625 115.191406 Z M 108.742188 115.191406 C 108.742188 115.296875 108.65625 115.40625 108.523438 115.40625 C 108.417969 115.40625 108.308594 115.296875 108.308594 115.191406 C 108.308594 115.058594 108.417969 114.972656 108.523438 114.972656 C 108.65625 114.972656 108.742188 115.058594 108.742188 115.191406 Z M 109.386719 115.191406 C 109.386719 115.296875 109.300781 115.40625 109.171875 115.40625 C 109.066406 115.40625 108.957031 115.296875 108.957031 115.191406 C 108.957031 115.058594 109.066406 114.972656 109.171875 114.972656 C 109.300781 114.972656 109.386719 115.058594 109.386719 115.191406 Z M 110.035156 115.191406 C 110.035156 115.296875 109.949219 115.40625 109.820312 115.40625 C 109.710938 115.40625 109.605469 115.296875 109.605469 115.191406 C 109.605469 115.058594 109.710938 114.972656 109.820312 114.972656 C 109.949219 114.972656 110.035156 115.058594 110.035156 115.191406 Z M 111.117188 115.234375 C 111.117188 115.320312 110.921875 115.40625 110.683594 115.40625 C 110.445312 115.40625 110.253906 115.320312 110.253906 115.210938 C 110.253906 115.082031 110.445312 115.015625 110.683594 115.039062 C 110.921875 115.058594 111.117188 115.144531 111.117188 115.234375 Z M 111.761719 115.191406 C 111.761719 115.296875 111.675781 115.40625 111.546875 115.40625 C 111.4375 115.40625 111.332031 115.296875 111.332031 115.191406 C 111.332031 115.058594 111.4375 114.972656 111.546875 114.972656 C 111.675781 114.972656 111.761719 115.058594 111.761719 115.191406 Z M 112.84375 115.234375 C 112.84375 115.320312 112.648438 115.40625 112.410156 115.40625 C 112.171875 115.40625 111.980469 115.320312 111.980469 115.210938 C 111.980469 115.082031 112.171875 115.015625 112.410156 115.039062 C 112.648438 115.058594 112.84375 115.144531 112.84375 115.234375 Z M 113.488281 115.191406 C 113.488281 115.296875 113.402344 115.40625 113.273438 115.40625 C 113.164062 115.40625 113.058594 115.296875 113.058594 115.191406 C 113.058594 115.058594 113.164062 114.972656 113.273438 114.972656 C 113.402344 114.972656 113.488281 115.058594 113.488281 115.191406 Z M 114.570312 115.234375 C 114.570312 115.320312 114.375 115.40625 114.136719 115.40625 C 113.898438 115.40625 113.707031 115.320312 113.707031 115.210938 C 113.707031 115.082031 113.898438 115.015625 114.136719 115.039062 C 114.375 115.058594 114.570312 115.144531 114.570312 115.234375 Z M 115.214844 115.191406 C 115.214844 115.296875 115.128906 115.40625 115 115.40625 C 114.890625 115.40625 114.785156 115.296875 114.785156 115.191406 C 114.785156 115.058594 114.890625 114.972656 115 114.972656 C 115.128906 114.972656 115.214844 115.058594 115.214844 115.191406 Z M 116.726562 115.167969 C 116.726562 115.253906 116.445312 115.339844 116.078125 115.363281 C 115.734375 115.363281 115.433594 115.296875 115.433594 115.210938 C 115.433594 115.125 115.734375 115.039062 116.078125 115.015625 C 116.445312 115.015625 116.726562 115.082031 116.726562 115.167969 Z M 117.375 115.191406 C 117.375 115.296875 117.289062 115.40625 117.160156 115.40625 C 117.050781 115.40625 116.941406 115.296875 116.941406 115.191406 C 116.941406 115.058594 117.050781 114.972656 117.160156 114.972656 C 117.289062 114.972656 117.375 115.058594 117.375 115.191406 Z M 121.90625 115.191406 C 121.90625 115.253906 120.933594 115.339844 119.75 115.339844 C 118.5625 115.339844 117.589844 115.277344 117.589844 115.191406 C 117.589844 115.101562 118.5625 115.039062 119.75 115.039062 C 120.933594 115.039062 121.90625 115.101562 121.90625 115.191406 Z M 122.554688 115.191406 C 122.554688 115.296875 122.46875 115.40625 122.339844 115.40625 C 122.230469 115.40625 122.121094 115.296875 122.121094 115.191406 C 122.121094 115.058594 122.230469 114.972656 122.339844 114.972656 C 122.46875 114.972656 122.554688 115.058594 122.554688 115.191406 Z M 123.203125 115.191406 C 123.203125 115.296875 123.113281 115.40625 122.984375 115.40625 C 122.878906 115.40625 122.769531 115.296875 122.769531 115.191406 C 122.769531 115.058594 122.878906 114.972656 122.984375 114.972656 C 123.113281 114.972656 123.203125 115.058594 123.203125 115.191406 Z M 124.929688 115.234375 C 124.929688 115.320312 124.777344 115.40625 124.605469 115.40625 C 124.433594 115.40625 124.28125 115.320312 124.28125 115.234375 C 124.28125 115.125 124.433594 115.039062 124.605469 115.039062 C 124.777344 115.039062 124.929688 115.125 124.929688 115.234375 Z M 125.574219 115.191406 C 125.574219 115.296875 125.488281 115.40625 125.359375 115.40625 C 125.25 115.40625 125.144531 115.296875 125.144531 115.191406 C 125.144531 115.058594 125.25 114.972656 125.359375 114.972656 C 125.488281 114.972656 125.574219 115.058594 125.574219 115.191406 Z M 126.65625 115.234375 C 126.65625 115.320312 126.460938 115.40625 126.222656 115.40625 C 125.984375 115.40625 125.792969 115.320312 125.792969 115.210938 C 125.792969 115.082031 125.984375 115.015625 126.222656 115.039062 C 126.460938 115.058594 126.65625 115.144531 126.65625 115.234375 Z M 127.300781 115.191406 C 127.300781 115.296875 127.214844 115.40625 127.085938 115.40625 C 126.976562 115.40625 126.871094 115.296875 126.871094 115.191406 C 126.871094 115.058594 126.976562 114.972656 127.085938 114.972656 C 127.214844 114.972656 127.300781 115.058594 127.300781 115.191406 Z M 128.382812 115.234375 C 128.382812 115.320312 128.1875 115.40625 127.949219 115.40625 C 127.710938 115.40625 127.519531 115.320312 127.519531 115.210938 C 127.519531 115.082031 127.710938 115.015625 127.949219 115.039062 C 128.1875 115.058594 128.382812 115.144531 128.382812 115.234375 Z M 129.027344 115.191406 C 129.027344 115.296875 128.941406 115.40625 128.8125 115.40625 C 128.707031 115.40625 128.597656 115.296875 128.597656 115.191406 C 128.597656 115.058594 128.707031 114.972656 128.8125 114.972656 C 128.941406 114.972656 129.027344 115.058594 129.027344 115.191406 Z M 130.539062 115.167969 C 130.539062 115.253906 130.257812 115.339844 129.890625 115.363281 C 129.546875 115.363281 129.246094 115.296875 129.246094 115.210938 C 129.246094 115.125 129.546875 115.039062 129.890625 115.015625 C 130.257812 115.015625 130.539062 115.082031 130.539062 115.167969 Z M 131.1875 115.191406 C 131.1875 115.296875 131.101562 115.40625 130.972656 115.40625 C 130.863281 115.40625 130.753906 115.296875 130.753906 115.191406 C 130.753906 115.058594 130.863281 114.972656 130.972656 114.972656 C 131.101562 114.972656 131.1875 115.058594 131.1875 115.191406 Z M 135.71875 115.191406 C 135.71875 115.253906 134.75 115.339844 133.5625 115.339844 C 132.375 115.339844 131.402344 115.277344 131.402344 115.191406 C 131.402344 115.101562 132.375 115.039062 133.5625 115.039062 C 134.75 115.039062 135.71875 115.101562 135.71875 115.191406 Z M 136.367188 115.191406 C 136.367188 115.296875 136.28125 115.40625 136.152344 115.40625 C 136.042969 115.40625 135.933594 115.296875 135.933594 115.191406 C 135.933594 115.058594 136.042969 114.972656 136.152344 114.972656 C 136.28125 114.972656 136.367188 115.058594 136.367188 115.191406 Z M 137.015625 115.191406 C 137.015625 115.296875 136.929688 115.40625 136.796875 115.40625 C 136.691406 115.40625 136.582031 115.296875 136.582031 115.191406 C 136.582031 115.058594 136.691406 114.972656 136.796875 114.972656 C 136.929688 114.972656 137.015625 115.058594 137.015625 115.191406 Z M 137.660156 115.191406 C 137.660156 115.296875 137.574219 115.40625 137.445312 115.40625 C 137.339844 115.40625 137.230469 115.296875 137.230469 115.191406 C 137.230469 115.058594 137.339844 114.972656 137.445312 114.972656 C 137.574219 114.972656 137.660156 115.058594 137.660156 115.191406 Z M 138.742188 115.234375 C 138.742188 115.320312 138.546875 115.40625 138.308594 115.40625 C 138.070312 115.40625 137.878906 115.320312 137.878906 115.210938 C 137.878906 115.082031 138.070312 115.015625 138.308594 115.039062 C 138.546875 115.058594 138.742188 115.144531 138.742188 115.234375 Z M 139.820312 115.144531 C 139.820312 115.234375 139.625 115.320312 139.386719 115.339844 C 139.152344 115.363281 138.957031 115.296875 138.957031 115.167969 C 138.957031 115.058594 139.152344 114.972656 139.386719 114.972656 C 139.625 114.972656 139.820312 115.058594 139.820312 115.144531 Z M 160.109375 115.191406 C 160.109375 115.296875 160.023438 115.40625 159.890625 115.40625 C 159.785156 115.40625 159.675781 115.296875 159.675781 115.191406 C 159.675781 115.058594 159.785156 114.972656 159.890625 114.972656 C 160.023438 114.972656 160.109375 115.058594 160.109375 115.191406 Z M 168.523438 115.191406 C 168.523438 115.253906 166.691406 115.339844 164.425781 115.339844 C 162.179688 115.339844 160.324219 115.277344 160.324219 115.191406 C 160.324219 115.125 162.179688 115.039062 164.425781 115.039062 C 166.691406 115.039062 168.523438 115.101562 168.523438 115.191406 Z M 169.171875 115.191406 C 169.171875 115.296875 169.085938 115.40625 168.957031 115.40625 C 168.847656 115.40625 168.742188 115.296875 168.742188 115.191406 C 168.742188 115.058594 168.847656 114.972656 168.957031 114.972656 C 169.085938 114.972656 169.171875 115.058594 169.171875 115.191406 Z M 173.703125 115.191406 C 173.703125 115.253906 172.734375 115.339844 171.546875 115.339844 C 170.359375 115.339844 169.386719 115.277344 169.386719 115.191406 C 169.386719 115.101562 170.359375 115.039062 171.546875 115.039062 C 172.734375 115.039062 173.703125 115.101562 173.703125 115.191406 Z M 174.351562 115.191406 C 174.351562 115.296875 174.265625 115.40625 174.136719 115.40625 C 174.027344 115.40625 173.921875 115.296875 173.921875 115.191406 C 173.921875 115.058594 174.027344 114.972656 174.136719 114.972656 C 174.265625 114.972656 174.351562 115.058594 174.351562 115.191406 Z M 175.214844 115.144531 C 175.214844 115.253906 175.066406 115.339844 174.890625 115.339844 C 174.71875 115.339844 174.566406 115.253906 174.566406 115.144531 C 174.566406 115.058594 174.71875 114.972656 174.890625 114.972656 C 175.066406 114.972656 175.214844 115.058594 175.214844 115.144531 Z M 180.613281 115.191406 C 180.613281 115.253906 179.640625 115.339844 178.453125 115.339844 C 177.265625 115.339844 176.292969 115.277344 176.292969 115.191406 C 176.292969 115.101562 177.265625 115.039062 178.453125 115.039062 C 179.640625 115.039062 180.613281 115.101562 180.613281 115.191406 Z M 181.257812 115.191406 C 181.257812 115.296875 181.171875 115.40625 181.042969 115.40625 C 180.933594 115.40625 180.828125 115.296875 180.828125 115.191406 C 180.828125 115.058594 180.933594 114.972656 181.042969 114.972656 C 181.171875 114.972656 181.257812 115.058594 181.257812 115.191406 Z M 188.8125 115.191406 C 188.8125 115.277344 187.171875 115.339844 185.144531 115.339844 C 183.136719 115.339844 181.476562 115.277344 181.476562 115.191406 C 181.476562 115.101562 183.136719 115.039062 185.144531 115.039062 C 187.171875 115.039062 188.8125 115.101562 188.8125 115.191406 Z M 189.460938 115.191406 C 189.460938 115.296875 189.375 115.40625 189.246094 115.40625 C 189.136719 115.40625 189.027344 115.296875 189.027344 115.191406 C 189.027344 115.058594 189.136719 114.972656 189.246094 114.972656 C 189.375 114.972656 189.460938 115.058594 189.460938 115.191406 Z M 190.539062 115.234375 C 190.539062 115.320312 190.34375 115.40625 190.109375 115.40625 C 189.871094 115.40625 189.675781 115.320312 189.675781 115.210938 C 189.675781 115.082031 189.871094 115.015625 190.109375 115.039062 C 190.34375 115.058594 190.539062 115.144531 190.539062 115.234375 Z M 191.1875 115.191406 C 191.1875 115.296875 191.101562 115.40625 190.972656 115.40625 C 190.863281 115.40625 190.753906 115.296875 190.753906 115.191406 C 190.753906 115.058594 190.863281 114.972656 190.972656 114.972656 C 191.101562 114.972656 191.1875 115.058594 191.1875 115.191406 Z M 193.34375 115.210938 C 193.34375 115.320312 193.152344 115.40625 192.914062 115.40625 C 192.675781 115.40625 192.480469 115.320312 192.480469 115.234375 C 192.480469 115.144531 192.675781 115.058594 192.914062 115.039062 C 193.152344 115.015625 193.34375 115.082031 193.34375 115.210938 Z M 197.878906 115.191406 C 197.878906 115.253906 196.90625 115.339844 195.71875 115.339844 C 194.53125 115.339844 193.5625 115.277344 193.5625 115.191406 C 193.5625 115.101562 194.53125 115.039062 195.71875 115.039062 C 196.90625 115.039062 197.878906 115.101562 197.878906 115.191406 Z M 198.523438 115.191406 C 198.523438 115.296875 198.4375 115.40625 198.308594 115.40625 C 198.203125 115.40625 198.09375 115.296875 198.09375 115.191406 C 198.09375 115.058594 198.203125 114.972656 198.308594 114.972656 C 198.4375 114.972656 198.523438 115.058594 198.523438 115.191406 Z M 199.171875 115.191406 C 199.171875 115.296875 199.085938 115.40625 198.957031 115.40625 C 198.847656 115.40625 198.742188 115.296875 198.742188 115.191406 C 198.742188 115.058594 198.847656 114.972656 198.957031 114.972656 C 199.085938 114.972656 199.171875 115.058594 199.171875 115.191406 Z M 199.820312 115.191406 C 199.820312 115.296875 199.734375 115.40625 199.605469 115.40625 C 199.496094 115.40625 199.386719 115.296875 199.386719 115.191406 C 199.386719 115.058594 199.496094 114.972656 199.605469 114.972656 C 199.734375 114.972656 199.820312 115.058594 199.820312 115.191406 Z M 200.46875 115.191406 C 200.46875 115.296875 200.382812 115.40625 200.25 115.40625 C 200.144531 115.40625 200.035156 115.296875 200.035156 115.191406 C 200.035156 115.058594 200.144531 114.972656 200.25 114.972656 C 200.382812 114.972656 200.46875 115.058594 200.46875 115.191406 Z M 106.972656 121.75 L 107.015625 127.058594 L 106.496094 127.058594 C 106.195312 127.058594 105.890625 126.953125 105.804688 126.824219 C 105.742188 126.691406 105.675781 124.945312 105.65625 122.9375 L 105.65625 119.289062 L 105.050781 119.289062 C 104.597656 119.289062 104.425781 119.398438 104.402344 119.65625 C 104.382812 119.871094 104.359375 121.601562 104.339844 123.5 L 104.316406 126.953125 L 101.683594 126.996094 L 99.027344 127.015625 L 99.027344 116.507812 L 101.574219 116.441406 C 102.957031 116.398438 104.726562 116.398438 105.503906 116.398438 L 106.90625 116.441406 Z M 123.09375 116.570312 C 123.265625 116.636719 123.351562 124.277344 123.222656 126.648438 C 123.203125 126.972656 122.53125 127.015625 116.035156 127.015625 C 112.085938 127.015625 108.699219 126.972656 108.523438 126.929688 C 108.246094 126.867188 108.203125 126.132812 108.246094 121.835938 C 108.265625 119.074219 108.289062 116.742188 108.289062 116.65625 C 108.308594 116.398438 122.402344 116.3125 123.09375 116.570312 Z M 139.777344 116.59375 C 139.839844 116.65625 139.886719 121.945312 139.839844 123.628906 L 139.820312 124.191406 L 135.890625 124.191406 C 131.984375 124.167969 131.941406 124.167969 131.878906 124.644531 C 131.8125 125.117188 131.8125 125.117188 135.71875 125.097656 C 137.878906 125.097656 139.691406 125.140625 139.753906 125.203125 C 139.820312 125.269531 139.886719 127.082031 139.863281 129.21875 C 139.863281 133.082031 139.863281 133.125 140.316406 133.058594 C 140.769531 132.996094 140.769531 132.910156 140.769531 129.046875 L 140.75 125.117188 L 141.847656 125.117188 C 145.300781 125.074219 148.300781 125.117188 148.386719 125.203125 C 148.476562 125.289062 148.519531 135.867188 148.476562 139.859375 L 148.453125 140.65625 L 143.230469 140.613281 L 137.984375 140.550781 L 137.964844 134.722656 L 137.964844 128.894531 L 137.488281 128.828125 L 137.015625 128.765625 L 137.015625 140.65625 L 124.28125 140.65625 L 124.28125 127.921875 L 130.214844 127.921875 C 136 127.921875 136.152344 127.921875 136.152344 127.492188 C 136.152344 126.972656 136.710938 127.015625 129.742188 127.015625 L 124.28125 127.039062 L 124.28125 116.484375 L 127.90625 116.441406 C 132.007812 116.375 139.648438 116.464844 139.777344 116.59375 Z M 174.632812 116.464844 L 175.214844 116.484375 L 175.214844 127.015625 L 169.777344 127.015625 C 166.777344 127.039062 164.101562 127.039062 163.839844 127.039062 C 163.496094 127.058594 163.34375 127.191406 163.34375 127.492188 C 163.34375 127.921875 163.496094 127.921875 169.28125 127.921875 L 175.214844 127.921875 L 175.214844 140.65625 L 162.480469 140.65625 L 162.480469 128.765625 L 162.007812 128.828125 L 161.53125 128.894531 L 161.53125 134.722656 L 161.511719 140.550781 L 156.289062 140.613281 L 151.042969 140.65625 L 151.023438 140.074219 C 150.957031 137.460938 151.023438 125.289062 151.085938 125.203125 C 151.171875 125.117188 155.296875 125.054688 157.753906 125.097656 L 158.726562 125.117188 L 158.726562 129.046875 C 158.726562 132.886719 158.726562 132.996094 159.179688 133.058594 C 159.613281 133.125 159.632812 133.058594 159.632812 129.21875 C 159.632812 127.058594 159.675781 125.246094 159.742188 125.183594 C 159.804688 125.117188 161.617188 125.074219 163.753906 125.097656 C 167.660156 125.097656 167.660156 125.097656 167.660156 124.621094 L 167.660156 124.144531 L 163.667969 124.191406 C 160.085938 124.210938 159.675781 124.167969 159.65625 123.867188 C 159.632812 123.457031 159.632812 119.140625 159.65625 117.519531 L 159.675781 116.507812 L 161.25 116.441406 C 162.480469 116.398438 171.699219 116.417969 174.632812 116.464844 Z M 191.164062 116.679688 C 191.25 116.785156 191.292969 119.140625 191.292969 121.921875 L 191.273438 126.953125 L 183.847656 126.972656 C 179.75 126.996094 176.359375 126.929688 176.292969 126.84375 C 176.207031 126.714844 176.1875 118.363281 176.273438 116.871094 C 176.292969 116.65625 176.511719 116.484375 176.898438 116.441406 C 178.238281 116.289062 191.058594 116.507812 191.164062 116.679688 Z M 198.589844 116.464844 L 200.46875 116.484375 L 200.46875 127.015625 L 195.136719 127.015625 L 195.113281 123.414062 C 195.113281 121.449219 195.09375 119.699219 195.09375 119.550781 C 195.070312 119.417969 194.792969 119.289062 194.445312 119.289062 L 193.820312 119.289062 L 193.820312 122.785156 C 193.820312 124.730469 193.820312 126.476562 193.796875 126.671875 C 193.777344 126.953125 193.605469 127.058594 193.128906 127.058594 L 192.480469 127.058594 L 192.480469 116.507812 L 193.195312 116.441406 C 193.5625 116.398438 194.511719 116.398438 195.289062 116.417969 C 196.066406 116.441406 197.53125 116.464844 198.589844 116.464844 Z M 149.878906 132.886719 C 149.878906 137.160156 149.8125 140.65625 149.75 140.65625 C 149.660156 140.65625 149.617188 137.160156 149.617188 132.886719 C 149.617188 128.613281 149.683594 125.117188 149.75 125.117188 C 149.835938 125.117188 149.878906 128.613281 149.878906 132.886719 Z M 123.289062 134.289062 L 123.289062 140.550781 L 122.402344 140.613281 L 121.539062 140.679688 L 121.5625 138.023438 L 121.582031 135.371094 L 121 135.304688 L 120.4375 135.238281 L 120.4375 137.679688 C 120.4375 139.015625 120.417969 140.246094 120.417969 140.375 C 120.394531 140.59375 119.488281 140.65625 116.617188 140.65625 C 112.992188 140.65625 112.84375 140.679688 112.84375 141.089844 C 112.84375 141.324219 112.90625 141.519531 113.015625 141.542969 C 113.101562 141.542969 114.785156 141.5625 116.769531 141.5625 L 120.351562 141.585938 L 120.4375 142.449219 C 120.480469 142.921875 120.417969 143.332031 120.289062 143.355469 C 120.179688 143.398438 117.394531 143.417969 114.136719 143.398438 L 108.203125 143.355469 L 108.203125 135.800781 C 108.179688 131.636719 108.222656 128.183594 108.265625 128.074219 C 108.308594 127.988281 111.699219 127.945312 115.820312 127.964844 L 123.289062 128.03125 Z M 191.273438 135.691406 L 191.273438 143.355469 L 185.1875 143.375 C 179.144531 143.417969 179.121094 143.417969 179.058594 142.945312 C 179.015625 142.707031 179.015625 142.277344 179.058594 142.039062 C 179.144531 141.585938 179.207031 141.5625 182.835938 141.585938 C 186.503906 141.605469 186.546875 141.605469 186.609375 141.132812 C 186.675781 140.65625 186.675781 140.65625 182.898438 140.65625 L 179.101562 140.65625 L 179.078125 140.054688 C 179.058594 139.730469 179.058594 138.519531 179.058594 137.355469 C 179.058594 135.328125 179.035156 135.261719 178.5625 135.261719 C 177.957031 135.261719 177.890625 135.5625 177.933594 138.433594 L 177.957031 140.65625 L 176.1875 140.65625 L 176.207031 134.441406 C 176.230469 131.03125 176.25 128.183594 176.273438 128.074219 C 176.273438 127.988281 179.660156 127.945312 183.785156 127.964844 L 191.273438 128.03125 Z M 123.246094 141.929688 C 123.265625 142.320312 123.265625 143.054688 123.222656 143.3125 C 123.222656 143.398438 122.835938 143.441406 122.402344 143.398438 C 121.710938 143.355469 121.582031 143.269531 121.539062 142.816406 C 121.476562 141.800781 121.667969 141.542969 122.46875 141.5625 C 122.964844 141.585938 123.203125 141.691406 123.246094 141.929688 Z M 137.015625 149.183594 L 137.015625 156.78125 L 129.308594 156.757812 L 121.582031 156.734375 L 121.582031 144.648438 L 123.289062 144.648438 L 123.265625 148.363281 L 123.265625 152.097656 L 124.28125 152.097656 L 124.28125 144.542969 L 129.675781 144.542969 L 129.675781 144.003906 C 129.675781 143.699219 129.546875 143.460938 129.417969 143.441406 C 129.265625 143.441406 128.035156 143.417969 126.71875 143.417969 L 124.28125 143.417969 L 124.28125 141.585938 L 137.015625 141.585938 Z M 148.476562 141.824219 C 148.496094 142.058594 148.476562 154.210938 148.453125 155.871094 L 148.453125 156.734375 L 143.273438 156.78125 C 140.425781 156.800781 138.070312 156.734375 138.050781 156.671875 C 137.984375 156.347656 137.941406 141.84375 138.007812 141.714844 C 138.160156 141.457031 148.453125 141.5625 148.476562 141.824219 Z M 161.53125 148.859375 C 161.554688 152.828125 161.53125 156.238281 161.46875 156.457031 C 161.402344 156.78125 160.886719 156.800781 156.179688 156.757812 L 151 156.714844 L 151 149.9375 C 151 146.203125 151.023438 142.792969 151.023438 142.339844 L 151.042969 141.5625 L 156.289062 141.585938 L 161.511719 141.628906 Z M 175.214844 142.511719 L 175.214844 143.441406 L 172.796875 143.417969 C 169.648438 143.417969 169.820312 143.375 169.820312 144.003906 L 169.820312 144.542969 L 175.214844 144.542969 L 175.214844 152.097656 L 176.207031 152.097656 L 176.1875 148.578125 C 176.1875 146.65625 176.207031 144.953125 176.25 144.800781 C 176.292969 144.648438 176.683594 144.542969 177.136719 144.542969 L 177.933594 144.542969 L 177.933594 150.628906 L 177.914062 156.734375 L 170.207031 156.757812 L 162.480469 156.78125 L 162.480469 141.5625 L 168.847656 141.5625 L 175.214844 141.585938 Z M 177.914062 142.492188 C 177.914062 143.355469 177.914062 143.355469 177.050781 143.355469 C 176.230469 143.355469 176.1875 143.332031 176.1875 142.597656 C 176.164062 141.5625 176.207031 141.542969 177.113281 141.585938 C 177.890625 141.628906 177.914062 141.648438 177.914062 142.492188 Z M 149.878906 149.183594 C 149.898438 153.28125 149.835938 156.5625 149.769531 156.5 C 149.597656 156.324219 149.574219 141.734375 149.75 141.734375 C 149.835938 141.734375 149.878906 145.082031 149.878906 149.183594 Z M 148.519531 161.65625 C 148.496094 163.707031 148.476562 165.5 148.476562 165.628906 C 148.453125 165.84375 147.246094 165.910156 143.207031 165.910156 L 137.941406 165.910156 L 137.984375 163.363281 C 138.027344 161.980469 138.050781 160.773438 138.070312 160.6875 C 138.070312 160.621094 139.777344 160.554688 141.828125 160.578125 L 145.539062 160.597656 L 145.605469 159.929688 L 145.667969 159.261719 L 142.582031 159.238281 C 140.878906 159.238281 139.128906 159.238281 138.699219 159.21875 C 137.964844 159.21875 137.898438 159.175781 137.941406 158.613281 L 137.984375 158.03125 L 140.035156 157.921875 C 141.160156 157.859375 143.554688 157.835938 145.324219 157.878906 L 148.5625 157.945312 Z M 149.878906 161.914062 C 149.878906 164.117188 149.8125 165.910156 149.726562 165.910156 C 149.660156 165.910156 149.597656 164.117188 149.617188 161.914062 C 149.617188 159.714844 149.683594 157.921875 149.769531 157.921875 C 149.835938 157.921875 149.898438 159.714844 149.878906 161.914062 Z M 161.53125 158.570312 C 161.511719 159.324219 161.941406 159.261719 157.152344 159.238281 L 153.847656 159.21875 L 153.847656 159.867188 C 153.847656 160.339844 153.957031 160.511719 154.238281 160.535156 C 154.429688 160.535156 156.160156 160.554688 158.058594 160.578125 L 161.511719 160.621094 L 161.53125 163.253906 L 161.53125 165.910156 L 151.042969 165.910156 L 151.023438 165.414062 C 151.023438 164.808594 151.023438 158.550781 151.023438 158.183594 C 151.042969 157.988281 152.25 157.921875 156.308594 157.921875 L 161.574219 157.921875 Z M 161.53125 158.570312 " fill-opacity="1" fill-rule="nonzero"/></g><g clip-path="url(#1917cc1c15)"><path fill="#ffffff" d="M 170.300781 0.726562 L 285.707031 114.25 C 247.667969 152.875 209.648438 191.519531 171.65625 230.191406 C 133.019531 192.167969 94.375 154.148438 55.71875 116.140625 C 93.726562 77.484375 131.730469 38.824219 169.769531 0.203125 Z M 283.59375 114.265625 L 169.785156 2.3125 L 57.832031 116.125 L 171.640625 228.078125 Z M 283.59375 114.265625 " fill-opacity="1" fill-rule="nonzero"/></g><g clip-path="url(#2d7c0ee684)"><path fill="#ffffff" d="M 142.441406 0.726562 L 257.851562 114.25 C 219.8125 152.875 181.792969 191.519531 143.800781 230.191406 C 105.160156 192.167969 66.515625 154.148438 27.859375 116.140625 C 65.867188 77.484375 103.871094 38.824219 141.910156 0.203125 Z M 255.738281 114.265625 L 141.925781 2.3125 L 29.972656 116.125 L 143.785156 228.078125 Z M 255.738281 114.265625 " fill-opacity="1" fill-rule="nonzero"/></g><g clip-path="url(#8838b2055f)"><path fill="#ffffff" d="M 114.585938 0.726562 L 229.992188 114.25 C 191.953125 152.875 153.933594 191.519531 115.941406 230.191406 C 77.300781 192.167969 38.65625 154.148438 0.00390625 116.140625 C 38.011719 77.484375 76.011719 38.824219 114.050781 0.203125 Z M 227.878906 114.265625 L 114.070312 2.3125 L 2.117188 116.125 L 115.925781 228.078125 Z M 227.878906 114.265625 " fill-opacity="1" fill-rule="nonzero"/></g><path fill="#ffffff" d="M 91.6875 88.585938 C 91.6875 89.09375 91.636719 89.59375 91.539062 90.09375 C 91.4375 90.589844 91.292969 91.074219 91.097656 91.542969 C 90.902344 92.011719 90.664062 92.457031 90.382812 92.878906 C 90.101562 93.300781 89.78125 93.691406 89.421875 94.050781 C 89.0625 94.410156 88.671875 94.730469 88.25 95.011719 C 87.828125 95.292969 87.382812 95.53125 86.914062 95.726562 C 86.445312 95.917969 85.964844 96.066406 85.464844 96.164062 C 84.96875 96.261719 84.464844 96.3125 83.957031 96.3125 C 83.449219 96.3125 82.949219 96.261719 82.449219 96.164062 C 81.953125 96.066406 81.46875 95.917969 81 95.726562 C 80.53125 95.53125 80.085938 95.292969 79.664062 95.011719 C 79.242188 94.730469 78.851562 94.410156 78.496094 94.050781 C 78.136719 93.691406 77.816406 93.300781 77.535156 92.878906 C 77.25 92.457031 77.011719 92.011719 76.820312 91.542969 C 76.625 91.074219 76.476562 90.589844 76.378906 90.09375 C 76.28125 89.59375 76.230469 89.09375 76.230469 88.585938 C 76.230469 88.078125 76.28125 87.574219 76.378906 87.078125 C 76.476562 86.582031 76.625 86.097656 76.820312 85.628906 C 77.011719 85.160156 77.25 84.714844 77.535156 84.292969 C 77.816406 83.871094 78.136719 83.480469 78.496094 83.121094 C 78.851562 82.761719 79.242188 82.441406 79.664062 82.160156 C 80.085938 81.878906 80.53125 81.640625 81 81.445312 C 81.46875 81.25 81.953125 81.105469 82.449219 81.007812 C 82.949219 80.90625 83.449219 80.859375 83.957031 80.859375 C 84.464844 80.859375 84.96875 80.90625 85.464844 81.007812 C 85.964844 81.105469 86.445312 81.25 86.914062 81.445312 C 87.382812 81.640625 87.828125 81.878906 88.25 82.160156 C 88.671875 82.441406 89.0625 82.761719 89.421875 83.121094 C 89.78125 83.480469 90.101562 83.871094 90.382812 84.292969 C 90.664062 84.714844 90.902344 85.160156 91.097656 85.628906 C 91.292969 86.097656 91.4375 86.582031 91.539062 87.078125 C 91.636719 87.574219 91.6875 88.078125 91.6875 88.585938 Z M 91.6875 88.585938 " fill-opacity="1" fill-rule="nonzero"/><path fill="#ffffff" d="M 83.957031 80.109375 C 86.296875 80.109375 88.417969 81.058594 89.953125 82.589844 C 91.484375 84.128906 92.4375 86.246094 92.4375 88.585938 C 92.4375 90.925781 91.484375 93.046875 89.953125 94.578125 C 88.417969 96.113281 86.296875 97.0625 83.957031 97.0625 C 81.621094 97.0625 79.5 96.113281 77.964844 94.578125 C 76.429688 93.046875 75.480469 90.925781 75.480469 88.585938 C 75.480469 86.25 76.429688 84.128906 77.964844 82.59375 C 79.503906 81.058594 81.621094 80.109375 83.957031 80.109375 Z M 88.894531 83.652344 C 87.628906 82.386719 85.886719 81.605469 83.957031 81.605469 C 82.03125 81.605469 80.285156 82.386719 79.023438 83.648438 C 77.761719 84.910156 76.980469 86.65625 76.980469 88.585938 C 76.980469 90.511719 77.761719 92.257812 79.023438 93.519531 C 80.285156 94.785156 82.027344 95.5625 83.957031 95.5625 C 85.886719 95.5625 87.628906 94.78125 88.894531 93.519531 C 90.15625 92.257812 90.9375 90.511719 90.9375 88.585938 C 90.9375 86.65625 90.15625 84.910156 88.894531 83.652344 Z M 88.894531 83.652344 " fill-opacity="1" fill-rule="nonzero"/><path fill="#ffffff" d="M 63.742188 88.585938 C 63.742188 89.09375 63.691406 89.59375 63.59375 90.09375 C 63.496094 90.589844 63.347656 91.074219 63.152344 91.542969 C 62.960938 92.011719 62.722656 92.457031 62.4375 92.878906 C 62.15625 93.300781 61.835938 93.691406 61.476562 94.050781 C 61.121094 94.410156 60.730469 94.730469 60.308594 95.011719 C 59.886719 95.292969 59.441406 95.53125 58.972656 95.726562 C 58.503906 95.917969 58.019531 96.066406 57.523438 96.164062 C 57.023438 96.261719 56.523438 96.3125 56.015625 96.3125 C 55.507812 96.3125 55.003906 96.261719 54.507812 96.164062 C 54.007812 96.066406 53.527344 95.917969 53.058594 95.726562 C 52.589844 95.53125 52.144531 95.292969 51.722656 95.011719 C 51.300781 94.730469 50.910156 94.410156 50.550781 94.050781 C 50.191406 93.691406 49.871094 93.300781 49.589844 92.878906 C 49.308594 92.457031 49.070312 92.011719 48.875 91.542969 C 48.679688 91.074219 48.535156 90.589844 48.433594 90.09375 C 48.335938 89.59375 48.285156 89.09375 48.285156 88.585938 C 48.285156 88.078125 48.335938 87.574219 48.433594 87.078125 C 48.535156 86.582031 48.679688 86.097656 48.875 85.628906 C 49.070312 85.160156 49.308594 84.714844 49.589844 84.292969 C 49.871094 83.871094 50.191406 83.480469 50.550781 83.121094 C 50.910156 82.761719 51.300781 82.441406 51.722656 82.160156 C 52.144531 81.878906 52.589844 81.640625 53.058594 81.445312 C 53.527344 81.25 54.007812 81.105469 54.507812 81.007812 C 55.003906 80.90625 55.507812 80.859375 56.015625 80.859375 C 56.523438 80.859375 57.023438 80.90625 57.523438 81.007812 C 58.019531 81.105469 58.503906 81.25 58.972656 81.445312 C 59.441406 81.640625 59.886719 81.878906 60.308594 82.160156 C 60.730469 82.441406 61.121094 82.761719 61.476562 83.121094 C 61.835938 83.480469 62.15625 83.871094 62.4375 84.292969 C 62.722656 84.714844 62.960938 85.160156 63.152344 85.628906 C 63.347656 86.097656 63.496094 86.582031 63.59375 87.078125 C 63.691406 87.574219 63.742188 88.078125 63.742188 88.585938 Z M 63.742188 88.585938 " fill-opacity="1" fill-rule="nonzero"/><path fill="#ffffff" d="M 56.015625 80.109375 C 58.355469 80.109375 60.472656 81.058594 62.007812 82.589844 C 63.542969 84.128906 64.492188 86.246094 64.492188 88.585938 C 64.492188 90.925781 63.542969 93.046875 62.007812 94.578125 C 60.472656 96.113281 58.355469 97.0625 56.015625 97.0625 C 53.675781 97.0625 51.558594 96.113281 50.023438 94.578125 C 48.488281 93.046875 47.535156 90.925781 47.535156 88.585938 C 47.535156 86.25 48.488281 84.128906 50.019531 82.59375 C 51.558594 81.058594 53.675781 80.109375 56.015625 80.109375 Z M 60.949219 83.652344 C 59.6875 82.386719 57.941406 81.605469 56.015625 81.605469 C 54.085938 81.605469 52.339844 82.386719 51.078125 83.648438 C 49.816406 84.910156 49.035156 86.65625 49.035156 88.585938 C 49.035156 90.511719 49.816406 92.257812 51.078125 93.519531 C 52.339844 94.785156 54.085938 95.5625 56.015625 95.5625 C 57.941406 95.5625 59.6875 94.78125 60.949219 93.519531 C 62.210938 92.257812 62.992188 90.511719 62.992188 88.585938 C 62.992188 86.65625 62.210938 84.910156 60.949219 83.652344 Z M 60.949219 83.652344 " fill-opacity="1" fill-rule="nonzero"/><path fill="#ffffff" d="M 36.574219 88.585938 C 36.574219 89.09375 36.527344 89.59375 36.425781 90.09375 C 36.328125 90.589844 36.179688 91.074219 35.988281 91.542969 C 35.792969 92.011719 35.554688 92.457031 35.273438 92.878906 C 34.992188 93.300781 34.671875 93.691406 34.3125 94.050781 C 33.953125 94.410156 33.5625 94.730469 33.140625 95.011719 C 32.71875 95.292969 32.273438 95.53125 31.804688 95.726562 C 31.335938 95.917969 30.851562 96.066406 30.355469 96.164062 C 29.859375 96.261719 29.355469 96.3125 28.847656 96.3125 C 28.339844 96.3125 27.835938 96.261719 27.339844 96.164062 C 26.84375 96.066406 26.359375 95.917969 25.890625 95.726562 C 25.421875 95.53125 24.976562 95.292969 24.554688 95.011719 C 24.132812 94.730469 23.742188 94.410156 23.382812 94.050781 C 23.023438 93.691406 22.703125 93.300781 22.421875 92.878906 C 22.140625 92.457031 21.902344 92.011719 21.707031 91.542969 C 21.515625 91.074219 21.367188 90.589844 21.269531 90.09375 C 21.167969 89.59375 21.121094 89.09375 21.121094 88.585938 C 21.121094 88.078125 21.167969 87.574219 21.269531 87.078125 C 21.367188 86.582031 21.515625 86.097656 21.707031 85.628906 C 21.902344 85.160156 22.140625 84.714844 22.421875 84.292969 C 22.703125 83.871094 23.023438 83.480469 23.382812 83.121094 C 23.742188 82.761719 24.132812 82.441406 24.554688 82.160156 C 24.976562 81.878906 25.421875 81.640625 25.890625 81.445312 C 26.359375 81.25 26.84375 81.105469 27.339844 81.007812 C 27.835938 80.90625 28.339844 80.859375 28.847656 80.859375 C 29.355469 80.859375 29.859375 80.90625 30.355469 81.007812 C 30.851562 81.105469 31.335938 81.25 31.804688 81.445312 C 32.273438 81.640625 32.71875 81.878906 33.140625 82.160156 C 33.5625 82.441406 33.953125 82.761719 34.3125 83.121094 C 34.671875 83.480469 34.992188 83.871094 35.273438 84.292969 C 35.554688 84.714844 35.792969 85.160156 35.988281 85.628906 C 36.179688 86.097656 36.328125 86.582031 36.425781 87.078125 C 36.527344 87.574219 36.574219 88.078125 36.574219 88.585938 Z M 36.574219 88.585938 " fill-opacity="1" fill-rule="nonzero"/><path fill="#ffffff" d="M 28.847656 80.109375 C 31.1875 80.109375 33.308594 81.058594 34.839844 82.589844 C 36.375 84.128906 37.324219 86.246094 37.324219 88.585938 C 37.324219 90.925781 36.375 93.046875 34.839844 94.578125 C 33.308594 96.113281 31.1875 97.0625 28.847656 97.0625 C 26.507812 97.0625 24.390625 96.113281 22.855469 94.578125 C 21.320312 93.046875 20.371094 90.925781 20.371094 88.585938 C 20.371094 86.25 21.320312 84.128906 22.855469 82.59375 C 24.390625 81.058594 26.511719 80.109375 28.847656 80.109375 Z M 33.785156 83.652344 C 32.519531 82.386719 30.773438 81.605469 28.847656 81.605469 C 26.917969 81.605469 25.171875 82.386719 23.914062 83.648438 C 22.648438 84.910156 21.867188 86.65625 21.867188 88.585938 C 21.867188 90.511719 22.648438 92.257812 23.914062 93.519531 C 25.171875 94.785156 26.917969 95.5625 28.847656 95.5625 C 30.773438 95.5625 32.519531 94.78125 33.78125 93.519531 C 35.042969 92.257812 35.828125 90.511719 35.828125 88.585938 C 35.828125 86.65625 35.046875 84.910156 33.785156 83.652344 Z M 33.785156 83.652344 " fill-opacity="1" fill-rule="nonzero"/></svg>