<svg xmlns="http://www.w3.org/2000/svg" xmlns:xlink="http://www.w3.org/1999/xlink" width="319" zoomAndPan="magnify" viewBox="0 0 239.25 123.000003" height="164" preserveAspectRatio="xMidYMid meet" version="1.0"><defs><clipPath id="9fcac81c0d"><path d="M 140 15 L 224 15 L 224 96 L 140 96 Z M 140 15 " clip-rule="nonzero"/></clipPath><clipPath id="7eb6ca4555"><path d="M 237.492188 59.253906 L 174.890625 121.855469 L 115.449219 62.410156 L 178.046875 -0.1875 Z M 237.492188 59.253906 " clip-rule="nonzero"/></clipPath><clipPath id="3e866f6f53"><path d="M 237.492188 59.253906 L 174.890625 121.855469 L 115.449219 62.410156 L 178.046875 -0.1875 Z M 237.492188 59.253906 " clip-rule="nonzero"/></clipPath><clipPath id="1d38ada4cc"><path d="M 0.59375 26.585938 L 163.519531 26.585938 L 163.519531 120.320312 L 0.59375 120.320312 Z M 0.59375 26.585938 " clip-rule="nonzero"/></clipPath></defs><g clip-path="url(#9fcac81c0d)"><g clip-path="url(#7eb6ca4555)"><g clip-path="url(#3e866f6f53)"><path fill="#ffffff" d="M 141.5 38.285156 L 172.914062 38.285156 L 172.914062 65.367188 L 200.285156 65.363281 L 200.285156 94.945312 L 150.964844 94.957031 L 150.964844 95.726562 L 201.046875 95.722656 L 201.046875 65.390625 L 206.648438 65.390625 L 206.675781 79.359375 L 207.445312 79.359375 L 207.4375 65.367188 L 223.03125 65.363281 L 223.03125 64.59375 L 207.4375 64.597656 L 207.4375 29.273438 L 173.707031 29.273438 L 173.710938 15.28125 L 172.941406 15.28125 L 172.925781 29.25 L 157.339844 29.25 L 157.339844 30.019531 L 172.941406 30.035156 L 172.941406 37.511719 L 140.738281 37.511719 L 140.738281 87.601562 L 141.507812 87.601562 Z M 190.820312 38.285156 L 190.820312 37.515625 L 173.707031 37.515625 L 173.707031 30.042969 L 206.675781 30.035156 L 206.675781 64.59375 L 201.054688 64.59375 L 201.046875 45.628906 L 200.277344 45.628906 L 200.285156 64.605469 L 173.710938 64.605469 L 173.710938 38.28125 Z M 190.820312 38.285156 " fill-opacity="1" fill-rule="nonzero"/></g></g></g><g clip-path="url(#1d38ada4cc)"><path fill="#ffffff" d="M 99.261719 26.613281 L 98.707031 26.613281 L 98.707031 81.875 L 93.6875 81.875 L 93.6875 47.402344 L 93.128906 47.402344 L 93.128906 51.152344 L 86.6875 51.152344 L 86.6875 45.148438 L 95.992188 45.148438 L 95.992188 44.59375 L 86.6875 44.59375 L 86.6875 39.878906 L 86.132812 39.878906 L 86.132812 44.59375 L 83.648438 44.59375 L 83.648438 35.503906 L 83.089844 35.503906 L 83.089844 44.59375 L 78.070312 44.59375 L 78.070312 26.613281 L 77.515625 26.613281 L 77.515625 44.59375 L 65.5 44.59375 L 65.5 39.878906 L 64.941406 39.878906 L 64.941406 44.59375 L 35.644531 44.59375 L 35.644531 45.148438 L 64.941406 45.148438 L 64.941406 51.152344 L 13.175781 51.152344 L 13.175781 51.707031 L 64.941406 51.707031 L 64.941406 57.859375 L 23.070312 57.859375 L 23.070312 58.414062 L 64.941406 58.414062 L 64.941406 64.417969 L 0.605469 64.417969 L 0.605469 64.976562 L 64.941406 64.976562 L 64.941406 120.238281 L 65.5 120.238281 L 65.5 64.976562 L 70.519531 64.976562 L 70.519531 99.449219 L 71.074219 99.449219 L 71.074219 95.699219 L 77.515625 95.699219 L 77.515625 101.703125 L 68.210938 101.703125 L 68.210938 102.257812 L 77.515625 102.257812 L 77.515625 106.972656 L 78.070312 106.972656 L 78.070312 102.257812 L 80.554688 102.257812 L 80.554688 111.34375 L 81.113281 111.34375 L 81.113281 102.257812 L 86.132812 102.257812 L 86.132812 120.238281 L 86.6875 120.238281 L 86.6875 102.257812 L 98.707031 102.257812 L 98.707031 106.972656 L 99.261719 106.972656 L 99.261719 102.257812 L 128.558594 102.257812 L 128.558594 101.703125 L 99.261719 101.703125 L 99.261719 95.699219 L 151.027344 95.699219 L 151.027344 95.140625 L 99.261719 95.140625 L 99.261719 88.992188 L 141.132812 88.992188 L 141.132812 88.433594 L 99.261719 88.433594 L 99.261719 82.429688 L 163.601562 82.429688 L 163.601562 81.875 L 99.261719 81.875 Z M 93.128906 51.707031 L 93.128906 81.875 L 86.6875 81.875 L 86.6875 51.707031 Z M 83.648438 51.707031 L 86.132812 51.707031 L 86.132812 81.875 L 83.648438 81.875 Z M 83.089844 57.859375 L 78.070312 57.859375 L 78.070312 51.707031 L 83.089844 51.707031 Z M 77.515625 57.859375 L 71.074219 57.859375 L 71.074219 51.707031 L 77.515625 51.707031 Z M 77.515625 58.414062 L 77.515625 64.417969 L 71.074219 64.417969 L 71.074219 58.414062 Z M 78.070312 58.414062 L 83.089844 58.414062 L 83.089844 86.179688 L 83.648438 86.179688 L 83.648438 82.429688 L 86.132812 82.429688 L 86.132812 88.433594 L 81.113281 88.433594 L 81.113281 60.667969 L 80.554688 60.667969 L 80.554688 64.417969 L 78.070312 64.417969 Z M 80.554688 64.976562 L 80.554688 95.140625 L 78.070312 95.140625 L 78.070312 64.976562 Z M 81.113281 88.992188 L 86.132812 88.992188 L 86.132812 95.140625 L 81.113281 95.140625 Z M 86.6875 88.992188 L 93.128906 88.992188 L 93.128906 95.140625 L 86.6875 95.140625 Z M 86.6875 88.433594 L 86.6875 82.429688 L 93.128906 82.429688 L 93.128906 88.433594 Z M 86.132812 45.148438 L 86.132812 51.152344 L 83.648438 51.152344 L 83.648438 45.148438 Z M 83.089844 45.148438 L 83.089844 51.152344 L 78.070312 51.152344 L 78.070312 45.148438 Z M 65.5 45.148438 L 77.515625 45.148438 L 77.515625 51.152344 L 71.074219 51.152344 L 71.074219 48.773438 L 70.519531 48.773438 L 70.519531 51.152344 L 65.5 51.152344 Z M 65.5 51.707031 L 70.519531 51.707031 L 70.519531 57.859375 L 65.5 57.859375 Z M 65.5 64.417969 L 65.5 58.414062 L 70.519531 58.414062 L 70.519531 64.417969 Z M 71.074219 95.140625 L 71.074219 64.976562 L 77.515625 64.976562 L 77.515625 95.140625 Z M 78.070312 101.703125 L 78.070312 95.699219 L 80.554688 95.699219 L 80.554688 101.703125 Z M 81.113281 101.703125 L 81.113281 95.699219 L 86.132812 95.699219 L 86.132812 101.703125 Z M 98.707031 101.703125 L 86.6875 101.703125 L 86.6875 95.699219 L 93.128906 95.699219 L 93.128906 98.078125 L 93.6875 98.078125 L 93.6875 95.699219 L 98.707031 95.699219 Z M 98.707031 95.140625 L 93.6875 95.140625 L 93.6875 88.992188 L 98.707031 88.992188 Z M 98.707031 88.433594 L 93.6875 88.433594 L 93.6875 82.429688 L 98.707031 82.429688 Z M 98.707031 88.433594 " fill-opacity="1" fill-rule="nonzero"/></g></svg>