<svg xmlns="http://www.w3.org/2000/svg" xmlns:xlink="http://www.w3.org/1999/xlink" width="432" zoomAndPan="magnify" viewBox="0 0 324 237.75" height="317" preserveAspectRatio="xMidYMid meet" version="1.0"><defs><clipPath id="82c47009d2"><path d="M 258 7.003906 L 323.828125 7.003906 L 323.828125 100 L 258 100 Z M 258 7.003906 " clip-rule="nonzero"/></clipPath><clipPath id="c130e0fc34"><path d="M 258 30 L 323.828125 30 L 323.828125 123 L 258 123 Z M 258 30 " clip-rule="nonzero"/></clipPath><clipPath id="25476ca93e"><path d="M 203.398438 223 L 217 223 L 217 237 L 203.398438 237 Z M 203.398438 223 " clip-rule="nonzero"/></clipPath><clipPath id="eda9ad5746"><path d="M 0.171875 0 L 242.914062 0 L 242.914062 230.007812 L 0.171875 230.007812 Z M 0.171875 0 " clip-rule="nonzero"/></clipPath></defs><path fill="#ffffff" d="M 287.398438 110.816406 C 287.398438 111.097656 287.371094 111.378906 287.316406 111.65625 C 287.261719 111.933594 287.179688 112.199219 287.070312 112.460938 C 286.960938 112.722656 286.828125 112.972656 286.671875 113.207031 C 286.515625 113.441406 286.335938 113.660156 286.136719 113.859375 C 285.9375 114.058594 285.71875 114.238281 285.484375 114.394531 C 285.25 114.550781 285.003906 114.683594 284.742188 114.792969 C 284.480469 114.898438 284.210938 114.980469 283.933594 115.035156 C 283.65625 115.089844 283.375 115.121094 283.09375 115.121094 C 282.8125 115.121094 282.53125 115.089844 282.253906 115.035156 C 281.976562 114.980469 281.707031 114.898438 281.445312 114.792969 C 281.1875 114.683594 280.9375 114.550781 280.703125 114.394531 C 280.46875 114.238281 280.25 114.058594 280.050781 113.859375 C 279.851562 113.660156 279.671875 113.441406 279.515625 113.207031 C 279.359375 112.972656 279.226562 112.722656 279.117188 112.460938 C 279.007812 112.199219 278.929688 111.933594 278.871094 111.65625 C 278.816406 111.378906 278.789062 111.097656 278.789062 110.816406 C 278.789062 110.53125 278.816406 110.253906 278.871094 109.976562 C 278.929688 109.699219 279.007812 109.429688 279.117188 109.167969 C 279.226562 108.90625 279.359375 108.660156 279.515625 108.425781 C 279.671875 108.1875 279.851562 107.972656 280.050781 107.773438 C 280.25 107.570312 280.46875 107.394531 280.703125 107.238281 C 280.9375 107.078125 281.1875 106.945312 281.445312 106.839844 C 281.707031 106.730469 281.976562 106.648438 282.253906 106.59375 C 282.53125 106.539062 282.8125 106.511719 283.09375 106.511719 C 283.375 106.511719 283.65625 106.539062 283.933594 106.59375 C 284.210938 106.648438 284.480469 106.730469 284.742188 106.839844 C 285.003906 106.945312 285.25 107.078125 285.484375 107.238281 C 285.71875 107.394531 285.9375 107.570312 286.136719 107.773438 C 286.335938 107.972656 286.515625 108.1875 286.671875 108.425781 C 286.828125 108.660156 286.960938 108.90625 287.070312 109.167969 C 287.179688 109.429688 287.261719 109.699219 287.316406 109.976562 C 287.371094 110.253906 287.398438 110.53125 287.398438 110.816406 Z M 287.398438 110.816406 " fill-opacity="1" fill-rule="nonzero"/><path fill="#ffffff" d="M 224.359375 173.082031 C 224.359375 173.453125 224.289062 173.804688 224.148438 174.144531 C 224.007812 174.484375 223.808594 174.785156 223.546875 175.042969 C 223.289062 175.304688 222.988281 175.503906 222.648438 175.644531 C 222.308594 175.785156 221.957031 175.855469 221.585938 175.855469 C 221.21875 175.855469 220.867188 175.785156 220.527344 175.644531 C 220.1875 175.503906 219.886719 175.304688 219.628906 175.042969 C 219.367188 174.785156 219.167969 174.484375 219.027344 174.144531 C 218.886719 173.804688 218.816406 173.453125 218.816406 173.082031 C 218.816406 172.714844 218.886719 172.363281 219.027344 172.023438 C 219.167969 171.683594 219.367188 171.382812 219.628906 171.125 C 219.886719 170.863281 220.1875 170.664062 220.527344 170.523438 C 220.867188 170.382812 221.21875 170.3125 221.585938 170.3125 C 221.957031 170.3125 222.308594 170.382812 222.648438 170.523438 C 222.988281 170.664062 223.289062 170.863281 223.546875 171.125 C 223.808594 171.382812 224.007812 171.683594 224.148438 172.023438 C 224.289062 172.363281 224.359375 172.714844 224.359375 173.082031 Z M 224.359375 173.082031 " fill-opacity="1" fill-rule="nonzero"/><path fill="#ffffff" d="M 216.65625 177.394531 C 215.34375 178.707031 214.03125 180.019531 212.71875 181.332031 L 206.453125 187.597656 C 205.972656 188.078125 205.503906 188.546875 205.023438 189.027344 C 204.488281 189.5625 205.320312 190.394531 205.855469 189.859375 C 207.167969 188.546875 208.480469 187.238281 209.789062 185.925781 L 216.058594 179.65625 C 216.539062 179.179688 217.007812 178.707031 217.488281 178.226562 C 218.023438 177.695312 217.1875 176.863281 216.65625 177.394531 Z M 216.65625 177.394531 " fill-opacity="1" fill-rule="nonzero"/><path fill="#ffffff" d="M 272.027344 122.03125 L 256.523438 137.535156 C 254.332031 139.726562 252.140625 141.917969 249.957031 144.101562 C 247.773438 146.285156 245.519531 148.539062 243.296875 150.761719 L 228.082031 165.976562 C 227.484375 166.574219 226.875 167.152344 226.292969 167.765625 C 226.269531 167.789062 226.238281 167.820312 226.214844 167.84375 C 225.679688 168.378906 226.511719 169.210938 227.046875 168.675781 L 228.273438 167.453125 L 231.609375 164.113281 L 236.527344 159.199219 L 242.550781 153.171875 L 249.117188 146.605469 C 251.339844 144.382812 253.554688 142.167969 255.777344 139.945312 L 261.988281 133.734375 L 267.238281 128.488281 L 270.992188 124.734375 C 271.585938 124.136719 272.199219 123.554688 272.78125 122.941406 C 272.804688 122.917969 272.835938 122.886719 272.859375 122.863281 C 273.394531 122.328125 272.5625 121.496094 272.027344 122.03125 Z M 272.027344 122.03125 " fill-opacity="1" fill-rule="nonzero"/><g clip-path="url(#82c47009d2)"><path fill="#ffffff" d="M 258.863281 8.378906 L 260.574219 10.09375 L 265.203125 14.71875 L 280.433594 29.949219 C 283.488281 33.003906 286.542969 36.058594 289.597656 39.113281 L 319.984375 69.5 C 320.808594 70.328125 321.605469 71.207031 322.46875 71.984375 C 322.507812 72.015625 322.539062 72.054688 322.578125 72.09375 L 322.578125 71.261719 L 319.882812 73.957031 L 313.417969 80.417969 L 305.636719 88.203125 L 298.882812 94.957031 C 297.789062 96.050781 296.644531 97.101562 295.597656 98.242188 C 295.582031 98.257812 295.566406 98.273438 295.550781 98.289062 C 295.015625 98.820312 295.847656 99.652344 296.382812 99.121094 L 320.078125 75.425781 C 321.171875 74.332031 322.320312 73.28125 323.363281 72.140625 C 323.378906 72.125 323.394531 72.109375 323.410156 72.09375 C 323.636719 71.867188 323.636719 71.488281 323.410156 71.261719 C 322.835938 70.6875 322.261719 70.113281 321.699219 69.550781 L 310.214844 58.066406 L 301.84375 49.691406 L 292.675781 40.527344 L 283.425781 31.273438 L 274.824219 22.675781 L 262.289062 10.140625 C 261.464844 9.316406 260.648438 8.464844 259.804688 7.65625 C 259.765625 7.625 259.734375 7.585938 259.695312 7.546875 C 259.164062 7.011719 258.328125 7.847656 258.863281 8.378906 Z M 258.863281 8.378906 " fill-opacity="1" fill-rule="nonzero"/></g><path fill="#ffffff" d="M 286.847656 134.171875 C 286.847656 134.457031 286.820312 134.734375 286.765625 135.011719 C 286.710938 135.289062 286.628906 135.558594 286.519531 135.820312 C 286.414062 136.082031 286.28125 136.328125 286.125 136.566406 C 285.964844 136.800781 285.789062 137.015625 285.589844 137.21875 C 285.386719 137.417969 285.171875 137.59375 284.9375 137.753906 C 284.699219 137.910156 284.453125 138.042969 284.191406 138.148438 C 283.929688 138.257812 283.660156 138.339844 283.382812 138.394531 C 283.105469 138.449219 282.828125 138.476562 282.542969 138.476562 C 282.261719 138.476562 281.980469 138.449219 281.703125 138.394531 C 281.425781 138.339844 281.160156 138.257812 280.898438 138.148438 C 280.636719 138.042969 280.386719 137.910156 280.152344 137.753906 C 279.917969 137.59375 279.699219 137.417969 279.5 137.21875 C 279.300781 137.015625 279.121094 136.800781 278.964844 136.566406 C 278.808594 136.328125 278.675781 136.082031 278.566406 135.820312 C 278.460938 135.558594 278.378906 135.289062 278.324219 135.011719 C 278.269531 134.734375 278.242188 134.457031 278.242188 134.171875 C 278.242188 133.890625 278.269531 133.609375 278.324219 133.332031 C 278.378906 133.058594 278.460938 132.789062 278.566406 132.527344 C 278.675781 132.265625 278.808594 132.015625 278.964844 131.78125 C 279.121094 131.546875 279.300781 131.328125 279.5 131.128906 C 279.699219 130.929688 279.917969 130.75 280.152344 130.59375 C 280.386719 130.4375 280.636719 130.304688 280.898438 130.195312 C 281.160156 130.089844 281.425781 130.007812 281.703125 129.953125 C 281.980469 129.898438 282.261719 129.871094 282.542969 129.871094 C 282.828125 129.871094 283.105469 129.898438 283.382812 129.953125 C 283.660156 130.007812 283.929688 130.089844 284.191406 130.195312 C 284.453125 130.304688 284.699219 130.4375 284.9375 130.59375 C 285.171875 130.75 285.386719 130.929688 285.589844 131.128906 C 285.789062 131.328125 285.964844 131.546875 286.125 131.78125 C 286.28125 132.015625 286.414062 132.265625 286.519531 132.527344 C 286.628906 132.789062 286.710938 133.058594 286.765625 133.332031 C 286.820312 133.609375 286.847656 133.890625 286.847656 134.171875 Z M 286.847656 134.171875 " fill-opacity="1" fill-rule="nonzero"/><path fill="#ffffff" d="M 223.816406 196.441406 C 223.816406 196.808594 223.746094 197.164062 223.605469 197.503906 C 223.464844 197.84375 223.265625 198.144531 223.007812 198.402344 C 222.746094 198.664062 222.445312 198.863281 222.105469 199.003906 C 221.765625 199.144531 221.414062 199.214844 221.046875 199.214844 C 220.679688 199.214844 220.324219 199.144531 219.984375 199.003906 C 219.644531 198.863281 219.34375 198.664062 219.085938 198.402344 C 218.824219 198.144531 218.625 197.84375 218.484375 197.503906 C 218.34375 197.164062 218.273438 196.808594 218.273438 196.441406 C 218.273438 196.074219 218.34375 195.722656 218.484375 195.382812 C 218.625 195.042969 218.824219 194.742188 219.085938 194.480469 C 219.34375 194.222656 219.644531 194.019531 219.984375 193.878906 C 220.324219 193.738281 220.679688 193.667969 221.046875 193.667969 C 221.414062 193.667969 221.765625 193.738281 222.105469 193.878906 C 222.445312 194.019531 222.746094 194.222656 223.007812 194.480469 C 223.265625 194.742188 223.464844 195.042969 223.605469 195.382812 C 223.746094 195.722656 223.816406 196.074219 223.816406 196.441406 Z M 223.816406 196.441406 " fill-opacity="1" fill-rule="nonzero"/><path fill="#ffffff" d="M 216.113281 200.753906 C 214.800781 202.066406 213.488281 203.378906 212.179688 204.6875 L 205.910156 210.957031 C 205.429688 211.4375 204.960938 211.90625 204.480469 212.386719 C 203.945312 212.921875 204.78125 213.753906 205.3125 213.21875 C 206.625 211.90625 207.9375 210.59375 209.25 209.285156 L 215.515625 203.015625 C 215.996094 202.535156 216.464844 202.066406 216.945312 201.585938 C 217.480469 201.050781 216.648438 200.21875 216.113281 200.753906 Z M 216.113281 200.753906 " fill-opacity="1" fill-rule="nonzero"/><path fill="#ffffff" d="M 271.476562 145.390625 L 255.972656 160.894531 C 253.78125 163.085938 251.589844 165.277344 249.40625 167.460938 L 231.289062 185.578125 L 227.535156 189.335938 C 226.9375 189.929688 226.324219 190.511719 225.742188 191.125 C 225.71875 191.148438 225.6875 191.179688 225.664062 191.203125 C 225.128906 191.738281 225.960938 192.570312 226.496094 192.035156 L 227.722656 190.8125 L 231.058594 187.472656 L 248.566406 169.964844 C 250.789062 167.742188 253.003906 165.527344 255.226562 163.304688 L 261.441406 157.09375 L 266.6875 151.847656 L 270.441406 148.089844 C 271.039062 147.496094 271.652344 146.914062 272.230469 146.300781 C 272.253906 146.277344 272.285156 146.246094 272.308594 146.222656 C 272.84375 145.6875 272.011719 144.855469 271.476562 145.390625 Z M 271.476562 145.390625 " fill-opacity="1" fill-rule="nonzero"/><g clip-path="url(#c130e0fc34)"><path fill="#ffffff" d="M 258.320312 31.738281 L 260.035156 33.449219 L 264.660156 38.078125 L 271.515625 44.933594 L 279.890625 53.304688 L 289.054688 62.472656 L 298.308594 71.722656 L 306.910156 80.324219 L 314.21875 87.636719 L 319.445312 92.859375 C 320.269531 93.683594 321.0625 94.566406 321.925781 95.34375 C 321.964844 95.375 321.996094 95.414062 322.035156 95.453125 L 322.035156 94.621094 L 319.339844 97.3125 L 312.878906 103.777344 L 298.339844 118.316406 C 297.246094 119.40625 296.101562 120.460938 295.054688 121.597656 C 295.039062 121.613281 295.023438 121.628906 295.007812 121.644531 C 294.476562 122.179688 295.308594 123.011719 295.839844 122.480469 L 319.539062 98.78125 C 320.628906 97.691406 321.777344 96.636719 322.820312 95.5 C 322.835938 95.484375 322.851562 95.46875 322.867188 95.453125 C 323.097656 95.222656 323.097656 94.847656 322.867188 94.621094 C 322.292969 94.046875 321.722656 93.472656 321.15625 92.90625 L 316.53125 88.28125 L 309.671875 81.425781 L 301.300781 73.050781 L 292.132812 63.886719 C 289.046875 60.800781 285.96875 57.71875 282.882812 54.632812 L 274.28125 46.035156 L 266.96875 38.722656 L 261.746094 33.496094 C 260.921875 32.671875 260.105469 31.824219 259.265625 31.015625 C 259.226562 30.984375 259.195312 30.945312 259.15625 30.90625 C 258.621094 30.371094 257.789062 31.203125 258.320312 31.738281 Z M 258.320312 31.738281 " fill-opacity="1" fill-rule="nonzero"/></g><path fill="#ffffff" d="M 286.308594 157.53125 C 286.308594 157.816406 286.277344 158.09375 286.222656 158.371094 C 286.167969 158.648438 286.085938 158.917969 285.980469 159.179688 C 285.871094 159.441406 285.738281 159.6875 285.582031 159.921875 C 285.425781 160.160156 285.246094 160.375 285.046875 160.574219 C 284.847656 160.777344 284.628906 160.953125 284.394531 161.109375 C 284.160156 161.269531 283.910156 161.402344 283.648438 161.507812 C 283.386719 161.617188 283.121094 161.699219 282.84375 161.753906 C 282.566406 161.808594 282.285156 161.835938 282.003906 161.835938 C 281.71875 161.835938 281.441406 161.808594 281.164062 161.753906 C 280.886719 161.699219 280.617188 161.617188 280.355469 161.507812 C 280.09375 161.402344 279.847656 161.269531 279.609375 161.109375 C 279.375 160.953125 279.160156 160.777344 278.960938 160.574219 C 278.757812 160.375 278.582031 160.160156 278.421875 159.921875 C 278.265625 159.6875 278.132812 159.441406 278.027344 159.179688 C 277.917969 158.917969 277.835938 158.648438 277.78125 158.371094 C 277.726562 158.09375 277.699219 157.816406 277.699219 157.53125 C 277.699219 157.25 277.726562 156.96875 277.78125 156.691406 C 277.835938 156.414062 277.917969 156.144531 278.027344 155.886719 C 278.132812 155.625 278.265625 155.375 278.421875 155.140625 C 278.582031 154.90625 278.757812 154.6875 278.960938 154.488281 C 279.160156 154.289062 279.375 154.109375 279.609375 153.953125 C 279.847656 153.796875 280.09375 153.664062 280.355469 153.554688 C 280.617188 153.449219 280.886719 153.367188 281.164062 153.3125 C 281.441406 153.253906 281.71875 153.226562 282.003906 153.226562 C 282.285156 153.226562 282.566406 153.253906 282.84375 153.3125 C 283.121094 153.367188 283.386719 153.449219 283.648438 153.554688 C 283.910156 153.664062 284.160156 153.796875 284.394531 153.953125 C 284.628906 154.109375 284.847656 154.289062 285.046875 154.488281 C 285.246094 154.6875 285.425781 154.90625 285.582031 155.140625 C 285.738281 155.375 285.871094 155.625 285.980469 155.886719 C 286.085938 156.144531 286.167969 156.414062 286.222656 156.691406 C 286.277344 156.96875 286.308594 157.25 286.308594 157.53125 Z M 286.308594 157.53125 " fill-opacity="1" fill-rule="nonzero"/><path fill="#ffffff" d="M 223.277344 219.800781 C 223.277344 220.167969 223.207031 220.523438 223.066406 220.863281 C 222.925781 221.203125 222.722656 221.5 222.464844 221.761719 C 222.203125 222.019531 221.90625 222.222656 221.566406 222.363281 C 221.226562 222.503906 220.871094 222.574219 220.503906 222.574219 C 220.136719 222.574219 219.78125 222.503906 219.441406 222.363281 C 219.101562 222.222656 218.804688 222.019531 218.542969 221.761719 C 218.285156 221.5 218.082031 221.203125 217.941406 220.863281 C 217.800781 220.523438 217.730469 220.167969 217.730469 219.800781 C 217.730469 219.433594 217.800781 219.078125 217.941406 218.738281 C 218.082031 218.398438 218.285156 218.101562 218.542969 217.839844 C 218.804688 217.582031 219.101562 217.378906 219.441406 217.238281 C 219.78125 217.097656 220.136719 217.027344 220.503906 217.027344 C 220.871094 217.027344 221.226562 217.097656 221.566406 217.238281 C 221.90625 217.378906 222.203125 217.582031 222.464844 217.839844 C 222.722656 218.101562 222.925781 218.398438 223.066406 218.738281 C 223.207031 219.078125 223.277344 219.433594 223.277344 219.800781 Z M 223.277344 219.800781 " fill-opacity="1" fill-rule="nonzero"/><g clip-path="url(#25476ca93e)"><path fill="#ffffff" d="M 215.5625 224.113281 C 214.25 225.425781 212.941406 226.734375 211.628906 228.046875 L 205.359375 234.316406 C 204.882812 234.792969 204.410156 235.265625 203.929688 235.746094 C 203.398438 236.277344 204.230469 237.113281 204.765625 236.578125 C 206.074219 235.265625 207.386719 233.953125 208.699219 232.640625 L 214.964844 226.375 C 215.445312 225.894531 215.917969 225.425781 216.394531 224.945312 C 216.929688 224.410156 216.097656 223.578125 215.5625 224.113281 Z M 215.5625 224.113281 " fill-opacity="1" fill-rule="nonzero"/></g><path fill="#ffffff" d="M 270.9375 168.75 C 270.527344 169.15625 270.117188 169.566406 269.710938 169.972656 L 255.429688 184.253906 L 248.867188 190.820312 L 242.207031 197.480469 L 235.992188 203.691406 L 226.992188 212.691406 C 226.394531 213.289062 225.78125 213.871094 225.199219 214.484375 C 225.175781 214.507812 225.144531 214.539062 225.121094 214.5625 C 224.589844 215.097656 225.421875 215.929688 225.953125 215.394531 C 226.363281 214.984375 226.773438 214.578125 227.179688 214.167969 L 230.519531 210.832031 L 235.433594 205.914062 C 237.445312 203.902344 239.449219 201.902344 241.457031 199.890625 L 269.898438 171.449219 C 270.496094 170.851562 271.109375 170.273438 271.691406 169.660156 C 271.714844 169.636719 271.746094 169.605469 271.769531 169.582031 C 272.300781 169.046875 271.46875 168.214844 270.9375 168.75 Z M 270.9375 168.75 " fill-opacity="1" fill-rule="nonzero"/><path fill="#ffffff" d="M 257.773438 55.097656 L 264.109375 61.433594 C 266.394531 63.722656 268.683594 66.007812 270.96875 68.292969 L 279.339844 76.664062 C 282.394531 79.71875 285.449219 82.777344 288.503906 85.832031 L 297.757812 95.082031 L 318.894531 116.21875 C 319.71875 117.042969 320.511719 117.921875 321.375 118.699219 C 321.414062 118.730469 321.445312 118.769531 321.484375 118.8125 L 321.484375 117.976562 L 318.792969 120.671875 L 312.328125 127.136719 L 304.542969 134.917969 C 302.289062 137.175781 300.035156 139.429688 297.789062 141.675781 C 296.699219 142.765625 295.550781 143.820312 294.507812 144.957031 C 294.492188 144.972656 294.476562 144.988281 294.460938 145.003906 C 293.925781 145.539062 294.757812 146.371094 295.292969 145.835938 L 318.988281 122.140625 C 320.078125 121.050781 321.226562 119.996094 322.269531 118.859375 C 322.285156 118.84375 322.300781 118.828125 322.320312 118.8125 C 322.546875 118.582031 322.546875 118.207031 322.320312 117.976562 C 321.746094 117.40625 321.171875 116.832031 320.605469 116.265625 L 315.980469 111.640625 L 309.125 104.78125 L 300.75 96.410156 C 297.695312 93.355469 294.640625 90.300781 291.585938 87.246094 C 288.53125 84.1875 285.417969 81.078125 282.332031 77.992188 L 261.195312 56.855469 C 260.371094 56.03125 259.554688 55.183594 258.714844 54.375 C 258.675781 54.34375 258.644531 54.304688 258.605469 54.265625 C 258.070312 53.730469 257.238281 54.5625 257.773438 55.097656 Z M 257.773438 55.097656 " fill-opacity="1" fill-rule="nonzero"/><g clip-path="url(#eda9ad5746)"><path fill="#ffffff" d="M 145.859375 227.140625 L 84.851562 166.132812 L 137.445312 113.539062 L 84.28125 60.398438 L 141.734375 2.945312 L 237.539062 98.707031 L 239.035156 97.214844 L 141.757812 -0.0429688 L 82.851562 58.863281 L 71.976562 47.984375 L 99.050781 20.804688 L 97.558594 19.3125 L 70.398438 46.492188 L 40.105469 16.21875 L 38.609375 17.714844 L 68.90625 47.984375 L 0.300781 116.589844 L 65.8125 182.097656 L 38.632812 209.257812 L 40.125 210.753906 L 67.285156 183.65625 L 97.558594 213.929688 L 99.050781 212.433594 L 68.777344 182.097656 L 83.292969 167.582031 L 145.839844 230.128906 L 243.113281 132.851562 L 241.621094 131.355469 Z M 50.078125 131.355469 L 48.582031 132.851562 L 81.820312 166.089844 L 67.304688 180.605469 L 3.269531 116.589844 L 70.378906 49.480469 L 81.296875 60.398438 L 44.480469 97.234375 L 45.972656 98.726562 L 82.8125 61.871094 L 134.414062 113.476562 L 83.292969 164.597656 Z M 50.078125 131.355469 " fill-opacity="1" fill-rule="nonzero"/></g></svg>