<svg xmlns="http://www.w3.org/2000/svg" xmlns:xlink="http://www.w3.org/1999/xlink" width="700" zoomAndPan="magnify" viewBox="0 0 525 606.749999" height="809" preserveAspectRatio="xMidYMid meet" version="1.0"><defs><clipPath id="cba9ed9214"><path d="M 188.921875 0 L 524.78125 0 L 524.78125 335.863281 L 188.921875 335.863281 Z M 188.921875 0 " clip-rule="nonzero"/></clipPath><clipPath id="c80ab264f9"><path d="M 0.109375 249.285156 L 412.4375 249.285156 L 412.4375 606.136719 L 0.109375 606.136719 Z M 0.109375 249.285156 " clip-rule="nonzero"/></clipPath></defs><g clip-path="url(#cba9ed9214)"><path fill="#ffffff" d="M 346.90625 9.714844 L 337.261719 19.359375 L 325.632812 12.664062 C 319.222656 8.949219 313.804688 5.886719 313.578125 5.828125 C 313.265625 5.773438 307.023438 16.351562 291.878906 42.671875 C 280.191406 62.980469 270.292969 79.945312 269.894531 80.371094 C 269.5 80.792969 252.425781 90.808594 231.945312 102.636719 C 202.617188 119.539062 194.730469 124.21875 194.875 124.558594 C 194.988281 124.816406 198.050781 130.234375 201.738281 136.585938 L 208.429688 148.1875 L 198.675781 157.945312 L 188.917969 167.703125 L 198.675781 177.457031 L 208.429688 187.214844 L 201.738281 198.816406 C 198.078125 205.171875 195.015625 210.558594 194.957031 210.757812 C 194.902344 210.984375 209.199219 219.378906 232.3125 232.742188 L 269.726562 254.382812 L 291.367188 291.792969 C 303.253906 312.386719 313.039062 329.347656 313.066406 329.460938 C 313.121094 329.601562 318.398438 326.679688 324.78125 322.996094 C 331.191406 319.277344 336.578125 316.1875 336.777344 316.101562 C 337.035156 316.015625 340.917969 319.703125 346.933594 325.71875 L 356.691406 335.472656 L 366.445312 325.71875 C 372.460938 319.703125 376.347656 316.015625 376.601562 316.101562 C 376.800781 316.1875 382.1875 319.277344 388.597656 322.996094 C 394.980469 326.679688 400.257812 329.601562 400.3125 329.460938 C 400.34375 329.347656 410.128906 312.386719 422.011719 291.792969 L 443.652344 254.382812 L 481.066406 232.742188 C 504.183594 219.378906 518.476562 210.984375 518.421875 210.757812 C 518.363281 210.558594 515.300781 205.171875 511.640625 198.816406 L 504.949219 187.214844 L 524.460938 167.703125 L 514.707031 157.945312 L 504.949219 148.1875 L 511.640625 136.585938 C 515.328125 130.234375 518.394531 124.816406 518.507812 124.558594 C 518.648438 124.21875 510.761719 119.539062 481.433594 102.636719 C 460.957031 90.808594 443.878906 80.792969 443.484375 80.371094 C 443.085938 79.945312 433.214844 62.980469 421.5 42.671875 C 406.355469 16.351562 400.113281 5.773438 399.804688 5.828125 C 399.574219 5.886719 394.160156 8.949219 387.75 12.664062 L 376.121094 19.359375 L 366.476562 9.714844 C 361.171875 4.410156 356.773438 0.0703125 356.691406 0.0703125 C 356.605469 0.0703125 352.207031 4.410156 346.90625 9.714844 Z M 365.3125 12.238281 L 373.765625 20.691406 L 372.828125 21.257812 C 368.746094 23.726562 356.945312 30.421875 356.691406 30.421875 C 356.433594 30.421875 344.636719 23.726562 340.550781 21.257812 L 339.613281 20.691406 L 348.066406 12.238281 C 352.746094 7.558594 356.605469 3.757812 356.691406 3.757812 C 356.773438 3.757812 360.632812 7.558594 365.3125 12.238281 Z M 325.007812 15.386719 C 330.566406 18.59375 335.105469 21.257812 335.132812 21.34375 C 335.132812 21.429688 323.5625 33.058594 309.40625 47.15625 L 283.652344 72.824219 L 279.285156 75.320312 C 276.902344 76.683594 274.886719 77.757812 274.859375 77.730469 C 274.832031 77.675781 279.652344 69.222656 285.609375 58.925781 C 291.566406 48.628906 300.445312 33.285156 305.324219 24.804688 C 310.371094 16.039062 314.371094 9.429688 314.570312 9.488281 C 314.738281 9.542969 319.449219 12.183594 325.007812 15.386719 Z M 418.921875 43.609375 C 429.726562 62.328125 438.546875 77.675781 438.519531 77.730469 C 438.492188 77.757812 436.476562 76.683594 434.09375 75.320312 L 429.726562 72.824219 L 404 47.15625 C 389.820312 33.058594 378.246094 21.429688 378.246094 21.34375 C 378.273438 21.058594 398.527344 9.488281 398.894531 9.515625 C 399.09375 9.542969 408.113281 24.890625 418.921875 43.609375 Z M 345.429688 27.1875 C 349.683594 29.625 353.285156 31.78125 353.484375 31.953125 C 353.738281 32.179688 346.761719 36.347656 325.574219 48.574219 C 310.03125 57.535156 296.417969 65.363281 295.308594 65.988281 C 293.410156 67.039062 294.402344 65.960938 315.421875 44.914062 C 327.589844 32.746094 337.574219 22.761719 337.628906 22.761719 C 337.6875 22.761719 341.203125 24.746094 345.429688 27.1875 Z M 397.960938 44.914062 C 418.976562 65.960938 419.96875 67.039062 418.070312 65.988281 C 409.789062 61.449219 359.613281 32.207031 359.808594 32.035156 C 360.066406 31.753906 375.464844 22.789062 375.695312 22.761719 C 375.777344 22.761719 385.792969 32.746094 397.960938 44.914062 Z M 392.316406 54.273438 L 427.742188 74.695312 L 438.578125 85.53125 L 449.410156 96.367188 L 469.976562 132.046875 L 490.566406 167.703125 L 470.117188 203.128906 L 449.667969 238.527344 L 438.691406 249.476562 L 427.742188 260.421875 L 392.285156 280.902344 C 362.703125 297.976562 356.746094 301.324219 356.234375 301.125 C 355.894531 300.984375 339.871094 291.765625 320.609375 280.648438 L 285.582031 260.394531 L 274.632812 249.445312 L 263.683594 238.46875 L 243.234375 203.101562 L 222.8125 167.703125 L 243.40625 132.046875 L 263.96875 96.367188 L 274.746094 85.589844 L 285.496094 74.808594 L 320.867188 54.359375 C 340.351562 43.097656 356.40625 33.878906 356.578125 33.851562 C 356.746094 33.824219 372.828125 43.015625 392.316406 54.273438 Z M 273.015625 83.601562 C 271.230469 85.390625 269.753906 86.808594 269.699219 86.75 C 269.640625 86.695312 270.125 85.757812 270.746094 84.652344 C 271.769531 82.894531 272.164062 82.496094 273.808594 81.503906 C 274.859375 80.90625 275.824219 80.371094 275.996094 80.371094 C 276.136719 80.339844 274.804688 81.816406 273.015625 83.601562 Z M 439.484375 81.503906 C 441.242188 82.523438 441.613281 82.867188 442.632812 84.652344 C 443.257812 85.757812 443.738281 86.695312 443.683594 86.75 C 443.625 86.808594 442.148438 85.390625 440.363281 83.601562 C 438.578125 81.816406 437.1875 80.339844 437.300781 80.339844 C 437.386719 80.339844 438.378906 80.851562 439.484375 81.503906 Z M 264.59375 90.011719 L 262.097656 94.382812 L 236.257812 120.304688 L 210.417969 146.203125 L 204.433594 135.820312 C 201.113281 130.121094 198.417969 125.355469 198.417969 125.242188 C 198.449219 125.015625 266.832031 85.476562 267.003906 85.589844 C 267.03125 85.617188 265.953125 87.628906 264.59375 90.011719 Z M 481.832031 105.925781 C 500.042969 116.417969 514.933594 125.128906 514.960938 125.242188 C 514.960938 125.355469 512.265625 130.121094 508.949219 135.820312 L 502.960938 146.203125 L 477.125 120.304688 L 451.253906 94.382812 L 448.871094 90.15625 C 447.539062 87.828125 446.40625 85.816406 446.347656 85.644531 C 446.292969 85.503906 446.800781 85.703125 447.484375 86.097656 C 448.164062 86.523438 463.621094 95.429688 481.832031 105.925781 Z M 255.96875 104.789062 C 255.261719 106.152344 221.59375 164.441406 221.394531 164.667969 C 221.28125 164.78125 219.066406 161.207031 216.488281 156.726562 L 211.75 148.554688 L 233.960938 126.347656 C 246.15625 114.152344 256.167969 104.167969 256.226562 104.167969 C 256.253906 104.167969 256.140625 104.449219 255.96875 104.789062 Z M 501.515625 148.667969 C 499.132812 153.066406 492.128906 164.835938 491.984375 164.667969 C 491.730469 164.410156 457.949219 105.839844 457.382812 104.734375 C 457.210938 104.335938 467.054688 114.039062 479.308594 126.261719 C 491.558594 138.515625 501.542969 148.585938 501.515625 148.667969 Z M 214.8125 159.191406 L 219.71875 167.703125 L 214.8125 176.210938 L 209.90625 184.691406 L 201.339844 176.125 L 192.746094 167.558594 L 201.171875 159.136719 C 205.820312 154.484375 209.679688 150.683594 209.765625 150.683594 C 209.851562 150.683594 212.117188 154.511719 214.8125 159.191406 Z M 512.210938 159.136719 L 520.632812 167.558594 L 512.039062 176.125 L 503.472656 184.691406 L 498.566406 176.210938 L 493.660156 167.703125 L 498.566406 159.191406 C 501.261719 154.511719 503.53125 150.683594 503.613281 150.683594 C 503.699219 150.683594 507.558594 154.484375 512.210938 159.136719 Z M 238.128906 199.609375 C 247.207031 215.351562 254.976562 228.824219 255.375 229.535156 C 255.855469 230.414062 249.332031 224.089844 234.042969 208.828125 C 221.933594 196.746094 212.035156 186.734375 212.035156 186.621094 C 212.035156 186.082031 221.222656 170.539062 221.394531 170.738281 C 221.507812 170.851562 229.050781 183.839844 238.128906 199.609375 Z M 496.921875 178.679688 C 499.359375 182.90625 501.347656 186.480469 501.347656 186.621094 C 501.347656 186.734375 491.445312 196.746094 479.335938 208.828125 C 464.046875 224.089844 457.523438 230.414062 458.003906 229.535156 C 458.402344 228.824219 466.175781 215.351562 475.25 199.609375 C 484.328125 183.839844 491.84375 170.851562 491.902344 170.738281 C 492.128906 170.367188 492.183594 170.453125 496.921875 178.679688 Z M 264.222656 244.824219 C 265.613281 247.234375 266.71875 249.25 266.664062 249.304688 C 266.578125 249.390625 198.902344 210.472656 198.476562 210.105469 C 198.417969 210.050781 201.085938 205.339844 204.402344 199.609375 L 210.417969 189.203125 L 236.058594 214.8125 L 261.699219 240.457031 Z M 509.144531 199.839844 C 512.351562 205.453125 514.960938 210.050781 514.902344 210.105469 C 514.476562 210.472656 446.800781 249.390625 446.71875 249.304688 C 446.660156 249.25 447.710938 247.320312 449.042969 244.964844 L 451.480469 240.738281 L 477.179688 215.011719 C 491.332031 200.859375 502.960938 189.371094 503.074219 189.484375 C 503.191406 189.597656 505.914062 194.25 509.144531 199.839844 Z M 272.734375 251.546875 L 275.996094 254.835938 L 274.460938 254.011719 C 272.5625 253.019531 271.117188 251.601562 270.125 249.703125 C 269.667969 248.90625 269.355469 248.253906 269.414062 248.253906 C 269.441406 248.253906 270.945312 249.730469 272.734375 251.546875 Z M 443.257812 249.703125 C 442.265625 251.601562 440.816406 253.019531 438.917969 254.011719 L 437.386719 254.835938 L 440.648438 251.546875 C 442.433594 249.730469 443.9375 248.253906 443.964844 248.253906 C 444.023438 248.253906 443.710938 248.90625 443.257812 249.703125 Z M 279.824219 260.195312 L 283.652344 262.410156 L 335.105469 313.917969 L 324.695312 319.929688 C 318.964844 323.25 314.199219 325.859375 314.117188 325.746094 C 313.832031 325.460938 274.71875 257.617188 274.71875 257.445312 C 274.71875 257.273438 275.3125 257.585938 279.824219 260.195312 Z M 419.0625 291.539062 C 408.285156 310.257812 399.378906 325.632812 399.265625 325.746094 C 399.179688 325.859375 394.414062 323.25 388.683594 319.929688 L 378.273438 313.917969 L 429.726562 262.410156 L 434.09375 259.882812 C 436.507812 258.496094 438.519531 257.386719 438.578125 257.445312 C 438.632812 257.503906 429.867188 272.847656 419.0625 291.539062 Z M 325.289062 286.40625 C 340.976562 295.453125 353.824219 302.914062 353.824219 302.996094 C 353.824219 303.082031 350.195312 305.238281 345.742188 307.792969 L 337.628906 312.441406 L 315.476562 290.234375 C 296.105469 270.863281 293.523438 268.167969 295.027344 268.988281 C 295.960938 269.527344 309.578125 277.355469 325.289062 286.40625 Z M 397.902344 290.289062 L 375.75 312.441406 L 367.636719 307.792969 C 363.183594 305.238281 359.554688 303.082031 359.554688 302.996094 C 359.554688 302.855469 419.6875 268.136719 419.941406 268.109375 C 420.027344 268.109375 410.097656 278.09375 397.902344 290.289062 Z M 365.339844 309.578125 L 373.765625 314.429688 L 365.226562 322.964844 L 356.691406 331.503906 L 348.152344 322.964844 L 339.613281 314.429688 L 347.953125 309.578125 C 352.519531 306.910156 356.40625 304.726562 356.605469 304.726562 C 356.773438 304.699219 360.71875 306.882812 365.339844 309.578125 Z M 365.339844 309.578125 " fill-opacity="1" fill-rule="nonzero"/></g><g clip-path="url(#c80ab264f9)"><path fill="#ffffff" d="M 122.703125 371.347656 L 233.632812 371.347656 C 251.570312 371.347656 267.882812 364.007812 279.707031 352.179688 C 291.535156 340.355469 298.875 324.050781 298.875 306.109375 L 298.875 249.289062 L 299.804688 249.289062 L 299.804688 306.109375 C 299.804688 324.304688 292.359375 340.851562 280.363281 352.84375 C 268.859375 364.347656 253.167969 371.667969 235.839844 372.242188 L 235.839844 372.277344 L 122.699219 372.277344 C 89.273438 372.277344 58.882812 385.953125 36.855469 407.988281 C 14.824219 430.019531 1.148438 460.410156 1.148438 493.835938 L 1.148438 606.039062 L 0.214844 606.039062 L 0.214844 493.835938 C 0.214844 460.148438 13.992188 429.527344 36.191406 407.328125 C 58.398438 385.128906 89.019531 371.347656 122.703125 371.347656 Z M 412.4375 362.425781 L 412.4375 249.289062 L 411.503906 249.289062 L 411.503906 362.425781 C 411.503906 395.855469 397.832031 426.242188 375.796875 448.273438 C 353.769531 470.308594 323.378906 483.984375 289.949219 483.984375 L 177.746094 483.984375 L 177.746094 483.996094 C 160.050781 484.339844 144 491.707031 132.289062 503.417969 C 120.296875 515.414062 112.851562 531.957031 112.851562 550.152344 L 112.851562 606.039062 L 113.785156 606.039062 L 113.785156 550.152344 C 113.785156 532.210938 121.125 515.90625 132.945312 504.078125 C 144.773438 492.253906 161.082031 484.914062 179.019531 484.914062 L 289.949219 484.914062 C 323.636719 484.914062 354.253906 471.132812 376.460938 448.933594 C 398.65625 426.734375 412.4375 396.113281 412.4375 362.425781 Z M 235.839844 466.140625 L 280.5625 466.140625 C 311.667969 466.140625 339.945312 453.421875 360.441406 432.917969 C 380.9375 412.417969 393.664062 384.144531 393.664062 353.042969 L 393.664062 249.289062 L 392.730469 249.289062 L 392.730469 353.042969 C 392.730469 383.882812 380.113281 411.933594 359.785156 432.261719 C 339.449219 452.589844 311.40625 465.210938 280.558594 465.210938 L 169.636719 465.210938 C 148.859375 465.210938 129.96875 473.707031 116.269531 487.40625 C 102.574219 501.101562 94.078125 519.988281 94.078125 540.765625 L 94.078125 606.039062 L 95.011719 606.039062 L 95.011719 540.765625 C 95.011719 520.246094 103.40625 501.589844 116.933594 488.0625 C 130.457031 474.535156 149.113281 466.140625 169.636719 466.140625 Z M 235.839844 447.367188 L 271.179688 447.367188 C 299.699219 447.367188 325.625 435.703125 344.429688 416.902344 C 363.226562 398.105469 374.890625 372.175781 374.890625 343.652344 L 374.890625 249.289062 L 373.960938 249.289062 L 373.960938 343.652344 C 373.960938 371.917969 362.394531 397.613281 343.765625 416.242188 C 325.136719 434.871094 299.445312 446.4375 271.179688 446.4375 L 160.25 446.4375 C 136.890625 446.4375 115.65625 455.988281 100.261719 471.386719 C 84.867188 486.78125 75.308594 508.015625 75.308594 531.378906 L 75.308594 606.039062 L 76.242188 606.039062 L 76.242188 531.378906 C 76.242188 508.273438 85.691406 487.273438 100.917969 472.046875 C 116.148438 456.820312 137.152344 447.367188 160.25 447.367188 Z M 235.839844 428.59375 L 261.789062 428.59375 C 287.730469 428.59375 311.3125 417.984375 328.410156 400.886719 C 345.507812 383.789062 356.121094 360.207031 356.121094 334.269531 L 356.121094 249.289062 L 355.183594 249.289062 L 355.183594 334.269531 C 355.183594 359.949219 344.683594 383.304688 327.75 400.230469 C 310.820312 417.160156 287.472656 427.667969 261.789062 427.667969 L 150.863281 427.667969 C 124.921875 427.667969 101.339844 438.277344 84.242188 455.375 C 67.144531 472.472656 56.53125 496.054688 56.53125 521.992188 L 56.53125 606.039062 L 57.46875 606.039062 L 57.46875 521.992188 C 57.46875 496.3125 67.976562 472.960938 84.902344 456.03125 C 101.832031 439.105469 125.179688 428.597656 150.863281 428.597656 L 235.839844 428.597656 Z M 235.839844 409.824219 L 252.40625 409.824219 C 275.761719 409.824219 297 400.269531 312.398438 384.875 C 327.789062 369.480469 337.347656 348.238281 337.347656 324.882812 L 337.347656 249.289062 L 336.410156 249.289062 L 336.410156 324.878906 C 336.410156 347.984375 326.960938 368.984375 311.734375 384.210938 C 296.507812 399.441406 275.507812 408.890625 252.402344 408.890625 L 141.472656 408.890625 C 112.953125 408.890625 87.023438 420.558594 68.230469 439.355469 C 49.425781 458.152344 37.761719 484.082031 37.761719 512.605469 L 37.761719 606.035156 L 38.695312 606.035156 L 38.695312 512.609375 C 38.695312 484.34375 50.257812 458.644531 68.886719 440.019531 C 87.511719 421.390625 113.214844 409.824219 141.472656 409.824219 Z M 235.839844 391.050781 L 243.015625 391.050781 C 263.796875 391.050781 282.683594 382.550781 296.378906 368.855469 C 310.078125 355.160156 318.574219 336.273438 318.574219 315.496094 L 318.574219 249.289062 L 317.644531 249.289062 L 317.644531 315.496094 C 317.644531 336.015625 309.246094 354.671875 295.71875 368.199219 C 282.199219 381.722656 263.539062 390.121094 243.015625 390.121094 L 132.089844 390.121094 C 100.984375 390.121094 72.710938 402.839844 52.210938 423.34375 C 31.714844 443.839844 18.988281 472.117188 18.988281 503.21875 L 18.988281 606.039062 L 19.921875 606.039062 L 19.921875 503.21875 C 19.921875 472.378906 32.539062 444.328125 52.875 424 C 73.203125 403.671875 101.246094 391.050781 132.089844 391.050781 Z M 235.839844 391.050781 " fill-opacity="1" fill-rule="nonzero"/></g></svg>